<svg width="611" height="594" viewBox="0 0 611 594" fill="none" xmlns="http://www.w3.org/2000/svg">
<path d="M165.295 378.008L374.921 342.917L398.614 484.464L188.989 519.555L165.295 378.008Z" fill="#F3B562"/>
<path fill-rule="evenodd" clip-rule="evenodd" d="M398.614 484.464L384.067 476.259C381.677 474.909 380.037 472.594 379.592 469.935L370.667 416.624L370.637 416.446L370.59 416.161L361.665 362.85C361.221 360.19 362.016 357.468 363.84 355.414L374.921 342.917L373.443 345.468L364.569 356.019C362.975 357.816 362.45 360.326 362.839 362.654L371.764 415.965L371.81 416.25L371.84 416.428L380.765 469.739C381.155 472.066 382.468 474.268 384.562 475.448L396.388 482.533L398.614 484.464ZM188.988 519.554L217.625 504.12C222.339 501.582 224.807 498.577 224.362 495.918L215.438 442.608L215.408 442.428L215.36 442.145L206.436 388.835C205.991 386.176 202.68 384.138 197.396 383.274L165.294 378.007L170.028 379.519L196.062 384.226C200.689 384.983 203.261 386.973 203.651 389.302L212.576 442.61L212.622 442.895L212.654 443.074L221.577 496.384C221.967 498.712 220.179 501.433 216.054 503.654L192.973 516.583L188.988 519.554Z" fill="#B18848"/>
<path fill-rule="evenodd" clip-rule="evenodd" d="M215.271 442.554L208.812 449.628L206.865 450.23L214.446 442.131L215.271 442.554ZM215.96 441.799L224.969 446.431L224.516 447.307L215.271 442.554L215.96 441.799ZM215.96 441.799L215.147 441.382L221.772 434.305L222.321 434.831L215.96 441.799ZM215.147 441.382L214.446 442.131L205.075 437.313L207.11 437.25L215.147 441.382Z" fill="#D9DEDD"/>
<path fill-rule="evenodd" clip-rule="evenodd" d="M220.241 439.596C220.255 439.72 220.273 439.845 220.294 439.969C220.361 440.368 220.454 440.756 220.57 441.132C220.579 441.401 220.6 441.672 220.634 441.944C220.648 442.068 220.665 442.192 220.687 442.316C221.486 447.089 226.001 450.313 230.779 449.512C235.552 448.713 238.773 444.193 237.975 439.422C237.955 439.298 237.93 439.176 237.904 439.053C237.848 438.785 237.779 438.522 237.699 438.265C237.687 437.872 237.649 437.474 237.582 437.075C237.562 436.95 237.537 436.828 237.511 436.706C236.546 432.135 232.14 429.099 227.492 429.876C222.838 430.656 219.661 434.961 220.241 439.596ZM237.699 438.265C236.421 434.14 232.261 431.491 227.885 432.224C223.504 432.957 220.433 436.815 220.57 441.132C221.849 445.253 226.007 447.899 230.384 447.165C234.76 446.434 237.831 442.577 237.699 438.265ZM192.756 446.611C192.771 446.734 192.789 446.858 192.809 446.982C193.607 451.755 198.124 454.978 202.9 454.18C207.673 453.381 210.897 448.86 210.098 444.088C210.078 443.964 210.053 443.842 210.026 443.718C209.97 443.451 209.901 443.189 209.822 442.932C209.81 442.538 209.771 442.14 209.704 441.74C209.686 441.618 209.661 441.494 209.634 441.372C208.668 436.802 204.264 433.765 199.614 434.542C194.961 435.322 191.785 439.628 192.363 444.263C192.379 444.388 192.396 444.51 192.417 444.635C192.483 445.033 192.576 445.42 192.692 445.795C192.7 446.066 192.721 446.338 192.756 446.611ZM192.692 445.795C192.556 441.479 195.627 437.623 200.007 436.89C204.384 436.157 208.544 438.806 209.822 442.932C209.952 447.244 206.881 451.1 202.508 451.832C198.129 452.565 193.97 449.917 192.692 445.795Z" fill="#8C9796"/>
<path d="M192.173 445.881C192.15 445.752 192.133 445.621 192.117 445.491C191.508 440.619 194.846 436.095 199.736 435.277C204.623 434.459 209.252 437.65 210.266 442.452C210.295 442.582 210.32 442.71 210.341 442.841C211.18 447.856 207.793 452.606 202.778 453.446C197.757 454.286 193.012 450.897 192.173 445.881Z" fill="#F5F7F7"/>
<path d="M192.121 445.511C191.481 440.447 194.85 436.114 199.739 435.296C204.626 434.478 209.223 437.477 210.27 442.473L192.121 445.511Z" fill="#D9DEDD"/>
<path d="M220.056 441.215C219.216 436.199 222.603 431.449 227.619 430.61C232.636 429.771 237.386 433.158 238.225 438.173C239.064 443.189 235.676 447.94 230.661 448.778C225.644 449.617 220.895 446.23 220.056 441.215Z" fill="#F5F7F7"/>
<path d="M238.162 437.804L219.992 440.845C219.217 436.203 222.541 431.08 227.558 430.241C232.573 429.401 237.385 433.162 238.162 437.804Z" fill="#D9DEDD"/>
<path fill-rule="evenodd" clip-rule="evenodd" d="M228.754 437.381C227.477 437.595 226.616 438.804 226.829 440.08C227.044 441.358 228.252 442.219 229.527 442.006C230.805 441.791 231.667 440.583 231.454 439.306C231.24 438.03 230.031 437.168 228.754 437.381ZM200.804 441.659C199.527 441.872 198.665 443.081 198.879 444.357C199.092 445.635 200.301 446.497 201.577 446.283C202.855 446.068 203.717 444.859 203.503 443.585C203.29 442.307 202.081 441.445 200.804 441.659Z" fill="#212121"/>
<path d="M466.683 593.463L261.244 541.297C256.838 540.178 254.17 535.698 255.29 531.292L327.899 245.344C329.018 240.937 333.496 238.272 337.904 239.39L543.344 291.555C547.751 292.676 550.415 297.154 549.297 301.562L476.69 587.508C475.57 591.916 471.089 594.582 466.683 593.463Z" fill="white"/>
<path d="M464.246 584.41L267.261 534.391C264.28 533.633 262.476 530.602 263.233 527.622L333.323 251.599C334.08 248.617 337.11 246.814 340.092 247.571L537.075 297.588C540.057 298.347 541.86 301.376 541.103 304.357L471.015 580.382C470.258 583.363 467.228 585.166 464.246 584.41Z" fill="white"/>
<path fill-rule="evenodd" clip-rule="evenodd" d="M342.249 258.207C341.728 260.235 342.884 262.281 344.828 262.781C346.773 263.28 348.772 262.042 349.293 260.018C349.812 257.99 348.658 255.944 346.713 255.445C344.767 254.945 342.769 256.183 342.249 258.207ZM356.276 265.72C354.332 265.22 353.175 263.173 353.696 261.148C354.215 259.122 356.214 257.883 358.159 258.384C360.105 258.883 361.259 260.931 360.74 262.956C360.219 264.983 358.221 266.219 356.276 265.72ZM364.677 263.969C364.158 265.993 365.313 268.041 367.259 268.54C369.203 269.04 371.202 267.802 371.723 265.776C372.242 263.749 371.087 261.704 369.141 261.205C367.196 260.704 365.198 261.941 364.677 263.969ZM377.773 271.238C375.828 270.739 374.674 268.691 375.193 266.667C375.714 264.639 377.712 263.403 379.659 263.902C381.603 264.402 382.758 266.449 382.237 268.474C381.718 270.5 379.719 271.739 377.773 271.238ZM386.641 269.605C386.12 271.632 387.275 273.68 389.22 274.178C391.165 274.677 393.164 273.44 393.684 271.415C394.205 269.388 393.049 267.341 391.105 266.841C389.16 266.343 387.161 267.58 386.641 269.605ZM400.666 277.116C398.719 276.616 397.565 274.569 398.086 272.544C398.605 270.518 400.604 269.281 402.55 269.78C404.494 270.279 405.649 272.327 405.13 274.352C404.609 276.379 402.611 277.617 400.666 277.116ZM408.601 275.244C408.082 277.271 409.237 279.318 411.181 279.817C413.127 280.317 415.124 279.079 415.645 277.053C416.164 275.027 415.01 272.979 413.065 272.48C411.119 271.981 409.122 273.22 408.601 275.244ZM421.699 282.516C419.754 282.016 418.598 279.969 419.118 277.944C419.639 275.918 421.639 274.68 423.583 275.18C425.528 275.679 426.684 277.727 426.163 279.751C425.644 281.779 423.645 283.015 421.699 282.516ZM429.638 280.644C429.117 282.67 430.274 284.717 432.218 285.216C434.164 285.717 436.161 284.479 436.682 282.453C437.201 280.427 436.046 278.379 434.102 277.88C432.156 277.381 430.158 278.618 429.638 280.644ZM442.735 287.918C440.789 287.418 439.634 285.372 440.153 283.345C440.674 281.32 442.672 280.081 444.617 280.58C446.563 281.081 447.718 283.127 447.199 285.153C446.679 287.179 444.679 288.417 442.735 287.918ZM450.672 286.044C450.151 288.071 451.305 290.117 453.251 290.616C455.196 291.115 457.195 289.879 457.714 287.853C458.235 285.827 457.08 283.78 455.136 283.28C453.19 282.782 451.191 284.018 450.672 286.044ZM463.769 293.317C461.825 292.817 460.668 290.771 461.189 288.744C461.708 286.719 463.707 285.482 465.652 285.98C467.598 286.479 468.752 288.526 468.232 290.554C467.711 292.579 465.714 293.816 463.769 293.317ZM472.311 290.951C471.792 292.975 472.947 295.023 474.893 295.522C476.838 296.022 478.836 294.784 479.357 292.758C479.876 290.733 478.721 288.686 476.775 288.186C474.831 287.687 472.832 288.923 472.311 290.951ZM485.977 297.877C484.033 297.376 482.878 295.33 483.397 293.304C483.918 291.279 485.916 290.04 487.861 290.54C489.807 291.039 490.962 293.086 490.441 295.113C489.922 297.139 487.923 298.376 485.977 297.877ZM493.796 296.466C493.277 298.49 494.431 300.538 496.376 301.037C498.322 301.537 500.32 300.3 500.84 298.273C501.361 296.248 500.204 294.201 498.26 293.701C496.314 293.202 494.317 294.44 493.796 296.466ZM506.892 303.738C504.948 303.237 503.792 301.191 504.313 299.165C504.833 297.14 506.832 295.901 508.777 296.401C510.723 296.9 511.877 298.948 511.357 300.974C510.836 303 508.839 304.237 506.892 303.738ZM515.282 301.982C514.761 304.008 515.915 306.054 517.861 306.554C519.806 307.053 521.805 305.817 522.324 303.791C522.845 301.765 521.69 299.717 519.746 299.218C517.8 298.72 515.802 299.956 515.282 301.982ZM526.249 304.797C525.73 306.823 526.884 308.87 528.829 309.37C530.775 309.87 532.774 308.631 533.293 306.606C533.814 304.579 532.658 302.532 530.714 302.033C528.767 301.534 526.77 302.771 526.249 304.797Z" fill="#D7E0E6"/>
<path fill-rule="evenodd" clip-rule="evenodd" d="M348.318 239.454L343.4 258.613C343.305 258.98 343.528 259.357 343.895 259.452C344.263 259.547 344.64 259.322 344.735 258.955L349.655 239.797C349.749 239.428 349.526 239.051 349.159 238.958C348.792 238.864 348.413 239.087 348.318 239.454ZM346.768 259.468L351.687 240.308C351.782 239.941 352.159 239.718 352.526 239.812C352.895 239.907 353.116 240.284 353.023 240.651L348.103 259.809C348.009 260.176 347.631 260.399 347.264 260.306C346.897 260.212 346.674 259.835 346.768 259.468ZM359.772 242.363L354.852 261.521C354.759 261.888 354.983 262.265 355.35 262.36C355.716 262.455 356.094 262.23 356.188 261.864L361.107 242.707C361.202 242.338 360.978 241.961 360.611 241.866C360.244 241.773 359.866 241.996 359.772 242.363ZM358.222 262.375L363.141 243.218C363.236 242.851 363.614 242.626 363.981 242.721C364.348 242.816 364.571 243.192 364.477 243.559L359.558 262.719C359.463 263.086 359.086 263.309 358.717 263.215C358.352 263.12 358.127 262.743 358.222 262.375ZM370.758 245.153L365.839 264.31C365.746 264.677 365.969 265.055 366.336 265.149C366.703 265.244 367.081 265.021 367.175 264.654L372.093 245.495C372.188 245.128 371.965 244.75 371.597 244.656C371.23 244.562 370.853 244.785 370.758 245.153ZM369.209 265.166L374.127 246.007C374.221 245.64 374.599 245.417 374.966 245.512C375.333 245.604 375.557 245.983 375.462 246.35L370.543 265.508C370.449 265.876 370.071 266.099 369.704 266.004C369.338 265.911 369.115 265.532 369.209 265.166ZM381.282 247.824L376.363 266.981C376.268 267.35 376.493 267.727 376.86 267.822C377.227 267.915 377.604 267.692 377.699 267.325L382.617 248.165C382.711 247.798 382.488 247.423 382.121 247.328C381.754 247.233 381.375 247.457 381.282 247.824ZM379.734 267.838L384.651 248.681C384.746 248.312 385.123 248.089 385.491 248.183C385.858 248.277 386.081 248.655 385.986 249.022L381.069 268.182C380.974 268.547 380.597 268.77 380.229 268.678C379.862 268.583 379.639 268.205 379.734 267.838ZM392.75 250.735L387.83 269.894C387.735 270.262 387.958 270.639 388.326 270.733C388.693 270.826 389.07 270.603 389.165 270.236L394.084 251.078C394.177 250.711 393.954 250.334 393.587 250.239C393.22 250.144 392.843 250.368 392.75 250.735ZM391.199 270.749L396.119 251.592C396.212 251.223 396.589 251 396.956 251.095C397.325 251.189 397.548 251.567 397.453 251.934L392.536 271.093C392.441 271.46 392.062 271.683 391.695 271.588C391.328 271.494 391.105 271.116 391.199 270.749ZM404.187 253.64L399.269 272.797C399.174 273.164 399.397 273.543 399.765 273.636C400.132 273.731 400.509 273.508 400.604 273.141L405.522 253.983C405.616 253.616 405.393 253.237 405.026 253.144C404.659 253.049 404.281 253.272 404.187 253.64ZM402.639 273.654L407.557 254.496C407.652 254.129 408.029 253.906 408.396 254.001C408.764 254.094 408.987 254.472 408.892 254.839L403.974 273.996C403.88 274.365 403.502 274.588 403.135 274.493C402.768 274.399 402.545 274.021 402.639 273.654ZM414.741 256.321L409.821 275.479C409.726 275.846 409.951 276.223 410.317 276.318C410.684 276.413 411.063 276.189 411.156 275.822L416.076 256.663C416.17 256.295 415.945 255.919 415.578 255.825C415.213 255.731 414.834 255.954 414.741 256.321ZM413.191 276.334L418.11 257.176C418.205 256.809 418.582 256.586 418.949 256.679C419.316 256.774 419.539 257.151 419.445 257.518L414.527 276.676C414.432 277.043 414.055 277.266 413.686 277.174C413.32 277.079 413.097 276.702 413.191 276.334ZM425.222 258.982L420.302 278.142C420.208 278.509 420.431 278.884 420.798 278.979C421.165 279.073 421.544 278.85 421.639 278.483L426.556 259.326C426.651 258.957 426.427 258.58 426.059 258.485C425.692 258.392 425.315 258.615 425.222 258.982ZM423.673 278.995L428.591 259.838C428.685 259.471 429.063 259.247 429.43 259.341C429.797 259.436 430.021 259.813 429.926 260.18L425.008 279.339C424.914 279.706 424.536 279.929 424.169 279.835C423.802 279.74 423.578 279.363 423.673 278.995ZM435.761 261.657L430.842 280.816C430.748 281.183 430.973 281.561 431.338 281.655C431.705 281.75 432.083 281.527 432.177 281.158L437.097 262C437.192 261.633 436.969 261.256 436.6 261.162C436.233 261.067 435.856 261.29 435.761 261.657ZM434.211 281.672L439.13 262.514C439.224 262.147 439.602 261.924 439.969 262.016C440.336 262.111 440.558 262.488 440.466 262.856L435.546 282.015C435.452 282.38 435.074 282.605 434.707 282.511C434.34 282.416 434.116 282.039 434.211 281.672ZM446.29 264.331L441.371 283.49C441.276 283.855 441.5 284.234 441.867 284.329C442.234 284.422 442.612 284.199 442.706 283.832L447.626 264.674C447.718 264.307 447.495 263.93 447.129 263.835C446.762 263.74 446.384 263.963 446.29 264.331ZM444.74 284.345L449.658 265.186C449.753 264.819 450.13 264.596 450.497 264.691C450.864 264.785 451.087 265.163 450.994 265.53L446.075 284.689C445.98 285.056 445.603 285.279 445.235 285.184C444.868 285.09 444.645 284.712 444.74 284.345ZM456.808 267.002L451.888 286.159C451.794 286.528 452.017 286.905 452.384 287C452.751 287.093 453.13 286.87 453.225 286.503L458.142 267.346C458.237 266.978 458.014 266.601 457.645 266.506C457.278 266.412 456.903 266.635 456.808 267.002ZM455.258 287.014L460.178 267.857C460.27 267.49 460.648 267.266 461.015 267.361C461.382 267.456 461.606 267.833 461.511 268.198L456.593 287.358C456.5 287.725 456.121 287.948 455.754 287.855C455.387 287.76 455.163 287.381 455.258 287.014ZM467.341 269.676L462.421 288.835C462.327 289.202 462.55 289.579 462.917 289.673C463.284 289.768 463.663 289.545 463.756 289.177L468.675 270.02C468.77 269.653 468.545 269.274 468.178 269.179C467.811 269.086 467.434 269.309 467.341 269.676ZM465.79 289.691L470.708 270.532C470.802 270.165 471.18 269.942 471.547 270.036C471.914 270.131 472.137 270.508 472.044 270.876L467.125 290.033C467.03 290.4 466.653 290.624 466.286 290.53C465.918 290.435 465.695 290.058 465.79 289.691ZM478.31 272.463L473.39 291.62C473.295 291.987 473.52 292.365 473.887 292.46C474.253 292.552 474.632 292.329 474.725 291.964L479.644 272.804C479.739 272.437 479.514 272.06 479.147 271.965C478.781 271.871 478.403 272.096 478.31 272.463ZM476.76 292.476L481.679 273.316C481.773 272.949 482.15 272.726 482.517 272.821C482.884 272.915 483.107 273.293 483.013 273.66L478.095 292.819C478 293.186 477.623 293.409 477.256 293.314C476.888 293.22 476.665 292.843 476.76 292.476ZM489.275 275.245L484.357 294.404C484.262 294.771 484.486 295.148 484.853 295.243C485.22 295.338 485.596 295.113 485.691 294.746L490.611 275.589C490.704 275.221 490.481 274.844 490.114 274.749C489.747 274.656 489.369 274.879 489.275 275.245ZM487.725 295.259L492.643 276.102C492.738 275.735 493.115 275.51 493.484 275.605C493.851 275.7 494.074 276.077 493.979 276.444L489.06 295.602C488.965 295.969 488.588 296.192 488.22 296.099C487.853 296.004 487.631 295.627 487.725 295.259ZM499.84 277.929L494.923 297.086C494.828 297.453 495.051 297.831 495.418 297.926C495.786 298.02 496.163 297.797 496.258 297.43L501.175 278.272C501.27 277.905 501.047 277.528 500.68 277.433C500.312 277.338 499.935 277.561 499.84 277.929ZM498.291 297.943L503.209 278.784C503.304 278.417 503.681 278.194 504.048 278.289C504.416 278.383 504.639 278.761 504.544 279.128L499.626 298.287C499.533 298.653 499.154 298.877 498.787 298.782C498.42 298.688 498.197 298.31 498.291 297.943ZM510.331 280.593L505.412 299.75C505.319 300.117 505.542 300.495 505.909 300.59C506.275 300.684 506.654 300.461 506.747 300.094L511.666 280.935C511.761 280.568 511.536 280.191 511.169 280.096C510.802 280.001 510.425 280.226 510.331 280.593ZM508.791 300.608L513.71 281.451C513.805 281.083 514.182 280.86 514.548 280.953C514.915 281.047 515.14 281.425 515.045 281.792L510.125 300.951C510.033 301.318 509.655 301.541 509.288 301.447C508.921 301.354 508.698 300.975 508.791 300.608ZM521.6 283.453L516.683 302.612C516.588 302.979 516.811 303.357 517.178 303.451C517.547 303.546 517.922 303.323 518.017 302.954L522.936 283.797C523.03 283.43 522.807 283.052 522.441 282.957C522.072 282.863 521.695 283.086 521.6 283.453ZM520.014 303.459L524.933 284.302C525.026 283.935 525.404 283.71 525.771 283.805C526.138 283.9 526.362 284.276 526.267 284.643L521.349 303.803C521.255 304.169 520.877 304.392 520.51 304.299C520.143 304.204 519.92 303.827 520.014 303.459ZM532.074 286.114L527.157 305.273C527.062 305.64 527.285 306.018 527.652 306.112C528.02 306.206 528.397 305.983 528.492 305.615L533.411 286.457C533.504 286.09 533.281 285.711 532.914 285.618C532.547 285.524 532.169 285.747 532.074 286.114ZM535.564 287L530.645 306.158C530.55 306.527 530.773 306.902 531.14 306.997C531.509 307.091 531.886 306.868 531.981 306.501L536.898 287.342C536.993 286.976 536.77 286.599 536.403 286.504C536.034 286.409 535.659 286.633 535.564 287Z" fill="#79919D"/>
<path fill-rule="evenodd" clip-rule="evenodd" d="M319.069 515.131L276.636 504.358L287.411 461.927L329.841 472.702L319.069 515.131ZM278.023 503.533L318.244 513.747L328.456 473.526L288.235 463.312L278.023 503.533Z" fill="#E3EBEC"/>
<path d="M349.885 361.357L347.561 357.32C347.338 356.933 346.846 356.801 346.46 357.022L330.804 366.037L325.956 357.968C325.734 357.581 325.242 357.445 324.857 357.667L320.812 359.978C320.425 360.201 320.291 360.692 320.511 361.08L328.178 373.84C328.398 374.227 328.892 374.361 329.277 374.139L332.181 372.48L332.197 372.473L332.633 372.222L333.322 371.828L333.341 371.812L349.588 362.457C349.975 362.236 350.109 361.744 349.885 361.357Z" fill="#59C447"/>
<path fill-rule="evenodd" clip-rule="evenodd" d="M350.713 390.502L308.284 379.727L319.057 337.298L361.488 348.07L350.713 390.502ZM309.667 378.905L349.887 389.117L360.101 348.895L319.881 338.684L309.667 378.905Z" fill="#E3EBEC"/>
<path fill-rule="evenodd" clip-rule="evenodd" d="M331.657 419.951L333.981 423.989C334.202 424.376 334.071 424.867 333.684 425.088L317.437 434.446L317.418 434.459L316.727 434.853L316.29 435.105L316.277 435.111L313.373 436.771C312.986 436.992 312.494 436.858 312.274 436.472L304.607 423.711C304.387 423.324 304.519 422.834 304.906 422.612L308.951 420.298C309.337 420.078 309.83 420.212 310.051 420.599L314.9 428.669L330.554 419.655C330.941 419.432 331.434 419.566 331.657 419.951ZM316.297 480.442L318.621 484.478C318.842 484.865 318.71 485.359 318.324 485.581L302.077 494.935L302.058 494.948L301.367 495.344L300.93 495.594L300.917 495.6L298.012 497.262C297.626 497.484 297.134 497.348 296.912 496.961L289.247 484.202C289.027 483.815 289.159 483.323 289.546 483.101L293.59 480.79C293.977 480.569 294.47 480.702 294.691 481.089L299.54 489.159L315.194 480.146C315.582 479.924 316.074 480.055 316.297 480.442Z" fill="#59C447"/>
<path fill-rule="evenodd" clip-rule="evenodd" d="M334.809 453.135L292.38 442.362L303.153 399.931L345.584 410.706L334.809 453.135ZM293.764 441.537L333.985 451.751L344.198 411.528L303.978 401.316L293.764 441.537Z" fill="#E3EBEC"/>
<path d="M506.726 347.34L334.403 303.584L334.551 303.003L506.874 346.759L506.726 347.34Z" fill="#788F9D"/>
<path fill-rule="evenodd" clip-rule="evenodd" d="M384.643 309.239L336.118 296.919L335.29 300.178L383.814 312.5L384.643 309.239ZM385.763 304.831L362.385 298.895L361.558 302.155L384.935 308.09L385.763 304.831Z" fill="#D7E0E6"/>
<path d="M229.25 215.26L309.787 186.324C315.81 184.161 318.965 177.466 316.801 171.447L309.727 151.751C307.563 145.731 300.867 142.574 294.847 144.736L214.307 173.673C208.287 175.835 205.131 182.531 207.294 188.55L214.369 208.247C216.532 214.266 223.228 217.423 229.25 215.26Z" fill="white"/>
<path d="M209.032 193.393L311.465 156.593L296.524 115.004L194.09 151.804L209.032 193.393Z" fill="#E2E4E3"/>
<path d="M77.4308 186.323L418.214 62.1193C424.554 59.7191 451.606 19.6193 453.047 14.9599L449.68 5.84404C448.084 1.32568 443.08 -1.06445 438.562 0.531364L18.3812 153.328C13.8629 154.924 12.2555 157.771 13.8514 162.287L17.2517 173.842C28.0382 179.618 72.9139 187.92 77.4308 186.323Z" fill="#D3D9D8"/>
<path d="M61.6969 233.988C70.807 237.499 78.504 235.87 82.467 234.469L423.248 110.267C423.706 110.093 424.165 109.904 424.637 109.693C427.391 108.448 429.879 106.782 432.048 104.781C436.608 100.561 439.737 94.8814 440.874 88.6147L453.329 20.1873C454.143 18.0475 453.808 15.5754 452.282 13.8688C450.292 11.6341 447.411 11.9262 444.18 13.0644L148.693 120.524L21.8172 166.663C17.6226 168.086 15.6613 170.481 17.2471 173.842C17.886 175.18 19.0314 176.674 20.256 178.572L55.7266 229.205C57.2044 231.352 59.2693 233.053 61.6969 233.988Z" fill="#181A1B"/>
<path d="M148.44 120.682L432.048 104.781C436.608 100.561 439.738 94.8814 440.875 88.6146L453.329 20.1873C454.143 18.0475 453.808 15.5754 452.283 13.8688C450.293 11.6341 447.412 11.9262 444.18 13.0644L148.693 120.524L148.44 120.682Z" fill="#253B4B"/>
<path d="M421.578 179.289C422.06 192.316 433.114 202.579 446.143 202.099L452.093 201.881C456.129 201.73 459.904 200.567 463.172 198.644C465.461 197.298 467.501 195.581 469.215 193.578C472.954 189.21 475.132 183.494 474.902 177.33L473.96 151.811L473.935 151.812L473.883 150.409L473.945 150.406L473.298 133.022C472.826 120.316 462.005 110.337 449.297 110.806L446.767 110.901L446.749 110.902L444.723 110.979L443.194 111.039L442.719 111.056L442.14 111.071C437.856 111.23 433.933 112.544 430.569 114.717L430.55 114.72C429.484 115.408 428.478 116.183 427.541 117.035C422.686 121.446 419.729 127.876 419.991 134.932L421.578 179.289Z" fill="#FBFCFC"/>
<path fill-rule="evenodd" clip-rule="evenodd" d="M427.293 117.267H427.295C427.375 117.188 427.457 117.113 427.542 117.037C427.457 117.113 427.375 117.188 427.293 117.267ZM423.838 121.338C424.044 121.029 424.257 120.725 424.478 120.426C424.257 120.724 424.044 121.028 423.838 121.338ZM424.478 120.426C424.699 120.127 424.927 119.833 425.162 119.546C424.927 119.834 424.699 120.127 424.478 120.426ZM422.168 124.281C421.692 125.287 421.287 126.335 420.959 127.414C421.287 126.335 421.692 125.287 422.17 124.281H422.168Z" fill="url(#paint0_radial)"/>
<path fill-rule="evenodd" clip-rule="evenodd" d="M427.29 117.266C426.578 117.931 425.907 118.643 425.283 119.393C425.907 118.643 426.578 117.931 427.291 117.266H427.29ZM422.168 124.279H422.166C422.564 123.44 423.01 122.63 423.502 121.849C423.01 122.63 422.565 123.44 422.168 124.279Z" fill="#464339"/>
<path d="M445.262 202.115C440.976 202.115 436.928 200.955 433.43 198.925C432.366 198.306 431.352 197.607 430.398 196.837C425.246 192.671 421.842 186.392 421.578 179.29L419.991 134.933C419.98 134.643 419.974 134.354 419.974 134.068C419.974 132.459 420.142 130.888 420.46 129.37C420.584 128.771 420.732 128.182 420.903 127.601C421.24 126.456 421.665 125.345 422.17 124.28C422.655 123.255 423.212 122.273 423.838 121.336C424.249 120.717 424.691 120.12 425.161 119.544C425.82 118.738 426.533 117.976 427.294 117.266C427.375 117.187 427.457 117.112 427.541 117.036L428.147 118.441L463.172 198.644C459.904 200.568 456.129 201.731 452.093 201.882L446.143 202.099C445.847 202.11 445.554 202.115 445.262 202.115Z" fill="#E2E6E5"/>
<path d="M66.7457 388.603C70.2467 388.937 73.7175 389.012 77.1293 388.845C111.934 387.137 141.113 360.109 144.529 324.412C144.627 323.381 144.698 322.36 144.755 321.339C146.771 283.4 118.52 250.271 80.3382 246.616C41.1277 242.861 6.30889 271.609 2.55462 310.821C-1.19822 350.019 27.5351 384.85 66.7457 388.603Z" fill="#E8ECEE"/>
<path d="M66.5513 390.64C70.0797 390.977 73.6728 391.06 77.2357 390.883C77.676 390.856 78.1019 390.84 78.5308 390.8L76.922 388.853L75.2801 386.861C72.5072 386.937 69.6955 386.832 66.9413 386.569C28.9237 382.928 0.950106 349.033 4.58926 311.016C8.2313 272.984 42.1262 245.012 80.1438 248.651C116.492 252.132 143.646 282.868 142.791 319.112L144.742 321.461L146.634 323.738C146.706 322.978 146.752 322.215 146.798 321.454C148.895 282.097 119.786 248.339 80.5338 244.581C40.2642 240.726 4.37486 270.356 0.519853 310.627C-3.33515 350.896 26.2817 386.785 66.5513 390.64Z" fill="white"/>
<path d="M78.5302 390.798C114.014 388.43 143.157 360.181 146.563 324.606C146.592 324.308 146.621 324.023 146.634 323.737L144.742 321.46L142.79 319.11C142.779 319.808 142.751 320.518 142.711 321.224C142.658 322.22 142.59 323.213 142.494 324.216C139.236 358.232 111.098 385.127 77.0221 386.807C76.4451 386.834 75.8537 386.86 75.2795 386.86L76.9214 388.851L78.5302 390.798Z" fill="#97A2A0"/>
<path d="M75.2804 386.861C75.8545 386.861 76.4459 386.835 77.023 386.808C111.099 385.129 139.237 358.233 142.495 324.217C142.591 323.214 142.659 322.221 142.712 321.226C142.752 320.519 142.78 319.81 142.791 319.112L85.6956 250.594L43.6216 348.393L75.2804 386.861Z" fill="#B5BFBF"/>
<path fill-rule="evenodd" clip-rule="evenodd" d="M83.2689 276.007L85.486 252.842C85.7738 249.842 83.5549 247.151 80.5532 246.863C77.4767 246.57 74.7182 248.845 74.4232 251.923L72.2228 274.906C51.0126 275.535 33.0893 291.868 31.0154 313.541C28.7663 337.03 45.985 357.892 69.4719 360.141C92.9602 362.389 113.824 345.171 116.071 321.684C118.136 300.126 103.799 280.778 83.2689 276.007ZM83.2689 276.007C81.4314 275.58 79.5444 275.269 77.615 275.085C75.7994 274.911 73.9996 274.853 72.2228 274.906L72.1626 275.535C72.1136 276.063 72.5022 276.536 73.0303 276.585L83.0527 277.547C83.0901 277.549 83.1247 277.521 83.1275 277.483L83.2689 276.007Z" fill="#FFFEFE"/>
<path d="M70.1834 352.702C89.572 354.559 106.786 340.352 108.643 320.976C109.696 309.972 105.575 299.678 98.2663 292.489C92.7133 286.986 85.2882 283.319 76.9034 282.517C57.5132 280.66 40.2974 294.869 38.4426 314.257C37.1345 327.906 43.8042 340.484 54.6468 347.368C59.1882 350.269 64.4577 352.154 70.1834 352.702Z" fill="#4E4B41"/>
<path d="M70.1849 352.702C72.0786 352.883 73.9478 352.91 75.7868 352.795C92.7854 351.735 106.966 338.462 108.641 320.977C109.695 309.97 105.576 299.677 98.2664 292.487C97.7498 292.156 97.2232 291.841 96.6864 291.54C92.5192 289.176 87.8022 287.64 82.7284 287.154C63.3541 285.3 46.1268 299.504 44.2719 318.879C43.2186 329.883 47.3369 340.178 54.6469 347.369C59.1897 350.268 64.4593 352.154 70.1849 352.702Z" fill="url(#paint1_radial)"/>
<path d="M75.787 352.796C92.7856 351.735 106.967 338.462 108.642 320.977C109.695 309.97 105.577 299.677 98.2666 292.487C97.75 292.156 97.2234 291.841 96.6866 291.54C97.2852 292.316 97.8349 293.123 98.3472 293.95C100.523 297.479 102.022 301.378 103.507 305.251C104.287 307.284 105.074 309.537 104.313 311.578C103.624 313.421 101.854 314.591 100.271 315.761C98.6882 316.932 97.0723 318.453 96.9715 320.417C96.8996 321.82 97.6248 323.259 97.1687 324.586C96.5902 326.265 94.4087 326.924 93.7123 328.559C92.9611 330.312 94.2231 332.228 94.4404 334.122C94.6231 335.721 94.0288 337.334 93.1194 338.663C92.2086 339.993 91.0013 341.085 89.8026 342.163C87.0167 344.671 83.9402 347.307 80.2032 347.592C79.0895 346.965 77.213 346.942 75.9396 346.835C74.6646 346.73 73.2386 347.327 72.794 348.525C72.381 349.649 72.9594 350.944 73.8646 351.724C74.4258 352.204 75.0906 352.529 75.787 352.796Z" fill="#4E4B41"/>
<path fill-rule="evenodd" clip-rule="evenodd" d="M102.77 325.8C102.226 325.8 101.681 325.707 101.154 325.52C99.9452 325.089 98.9753 324.213 98.4257 323.055C97.2889 320.662 98.312 317.79 100.704 316.653C103.098 315.516 105.97 316.539 107.106 318.931C107.657 320.092 107.723 321.396 107.291 322.606C106.861 323.813 105.986 324.783 104.828 325.333C104.173 325.643 103.472 325.8 102.77 325.8ZM98.8321 322.862C99.3314 323.912 100.211 324.705 101.306 325.096C102.401 325.486 103.584 325.426 104.635 324.927C105.686 324.427 106.479 323.55 106.87 322.453C107.26 321.358 107.2 320.175 106.7 319.125C105.67 316.956 103.067 316.03 100.898 317.058C98.7285 318.089 97.8018 320.692 98.8321 322.862ZM97.1238 340.719C96.7914 340.719 96.4576 340.663 96.1352 340.548C95.397 340.285 94.8042 339.749 94.4675 339.043C93.7739 337.579 94.3984 335.824 95.8618 335.129C96.5698 334.791 97.367 334.752 98.1052 335.015C98.8463 335.279 99.4377 335.814 99.773 336.52C100.111 337.23 100.151 338.027 99.8881 338.767C99.6247 339.505 99.0894 340.098 98.3815 340.434C97.9814 340.626 97.5541 340.719 97.1238 340.719ZM94.8738 338.849C95.4637 340.088 96.9502 340.616 98.1877 340.029C99.4281 339.44 99.9576 337.954 99.3677 336.715C99.0827 336.115 98.5805 335.661 97.956 335.438C97.3286 335.215 96.6552 335.25 96.0537 335.535C94.8162 336.123 94.2867 337.61 94.8738 338.849Z" fill="white"/>
<path fill-rule="evenodd" clip-rule="evenodd" d="M93.7796 344.721C93.5191 344.721 93.2558 344.676 93.0011 344.587C92.4197 344.378 91.9521 343.957 91.6873 343.398C91.139 342.246 91.6326 340.863 92.7852 340.316C93.3436 340.051 93.9709 340.018 94.5537 340.226C95.1365 340.433 95.6042 340.854 95.8689 341.413C96.1337 341.971 96.1654 342.598 95.9582 343.183C95.7509 343.764 95.3293 344.232 94.7696 344.496C94.4559 344.646 94.1177 344.721 93.7796 344.721ZM93.7762 340.54C93.5028 340.54 93.2323 340.6 92.9776 340.719C92.5272 340.934 92.189 341.311 92.0207 341.78C91.8537 342.249 91.8796 342.756 92.0926 343.205C92.307 343.655 92.6826 343.995 93.1517 344.161C93.6208 344.327 94.1287 344.302 94.5777 344.09C95.0281 343.875 95.3663 343.498 95.5346 343.029C95.7001 342.56 95.6756 342.055 95.4627 341.604C95.2483 341.154 94.8713 340.816 94.4022 340.647C94.1978 340.576 93.9877 340.54 93.7762 340.54Z" fill="white"/>
<path fill-rule="evenodd" clip-rule="evenodd" d="M90.5605 347.158C90.3562 347.158 90.149 347.124 89.9475 347.052C89.4899 346.889 89.1201 346.556 88.9129 346.117C88.7028 345.676 88.6784 345.18 88.8424 344.721C89.005 344.263 89.3374 343.893 89.7777 343.686C90.2181 343.476 90.7131 343.45 91.1721 343.616C91.6311 343.778 91.9995 344.109 92.2082 344.551C92.4183 344.991 92.4427 345.486 92.2787 345.945C92.1161 346.404 91.7822 346.771 91.3433 346.981C91.0944 347.099 90.8296 347.158 90.5605 347.158ZM90.5586 343.959C90.3586 343.959 90.1571 344.002 89.97 344.093C89.6391 344.25 89.3873 344.527 89.2635 344.874C89.1412 345.22 89.1599 345.594 89.3182 345.925C89.475 346.256 89.7527 346.506 90.0995 346.63C90.4449 346.753 90.819 346.733 91.15 346.576C91.481 346.42 91.7328 346.142 91.8551 345.795C91.9788 345.45 91.9587 345.076 91.8018 344.745C91.6436 344.412 91.3673 344.162 91.0205 344.038C90.8708 343.985 90.7154 343.959 90.5586 343.959Z" fill="white"/>
<path fill-rule="evenodd" clip-rule="evenodd" d="M87.5609 348.414C87.0457 348.414 86.5493 348.123 86.3133 347.627C86.155 347.295 86.1363 346.919 86.2601 346.574C86.3824 346.225 86.6342 345.948 86.9666 345.791C87.3004 345.632 87.6746 345.612 88.0214 345.738C88.3667 345.86 88.6459 346.112 88.8042 346.444C89.1308 347.13 88.8358 347.955 88.1494 348.28C87.9595 348.371 87.758 348.414 87.5609 348.414ZM86.7211 347.435C86.9398 347.898 87.4952 348.096 87.9571 347.875C88.4205 347.657 88.6176 347.1 88.3975 346.638C88.291 346.413 88.1039 346.245 87.8708 346.16C87.6377 346.078 87.3844 346.091 87.1614 346.198C86.9369 346.304 86.7671 346.493 86.6851 346.724C86.6002 346.959 86.6146 347.212 86.7211 347.435ZM99.6985 335.416C99.1401 335.416 98.5804 335.327 98.0408 335.147C96.7356 334.714 95.6981 333.806 95.1196 332.588C94.5426 331.372 94.4937 329.994 94.9829 328.707C95.4722 327.427 96.4377 326.389 97.704 325.788C100.319 324.546 103.417 325.575 104.608 328.083C105.798 330.592 104.64 333.643 102.024 334.885C101.283 335.237 100.49 335.416 99.6985 335.416ZM100.025 325.711C99.3141 325.711 98.586 325.866 97.8953 326.194C96.7355 326.745 95.8505 327.695 95.403 328.869C94.9583 330.039 95.0015 331.292 95.5253 332.398C96.0505 333.501 96.9945 334.327 98.1831 334.721C99.3745 335.116 100.67 335.031 101.831 334.48C104.222 333.344 105.286 330.561 104.202 328.276C103.43 326.652 101.776 325.711 100.025 325.711Z" fill="white"/>
<path fill-rule="evenodd" clip-rule="evenodd" d="M104.339 319.573C103.727 319.864 102.996 319.604 102.706 318.992C102.416 318.38 102.675 317.649 103.287 317.36C103.899 317.069 104.63 317.33 104.922 317.941C105.212 318.553 104.95 319.283 104.339 319.573ZM101.42 328.82C100.859 329.088 100.185 328.847 99.9176 328.286C99.6514 327.724 99.8917 327.052 100.453 326.785C101.016 326.518 101.688 326.757 101.954 327.319C102.22 327.88 101.983 328.554 101.42 328.82ZM96.5438 336.808C96.728 337.196 97.1928 337.362 97.5784 337.178C97.9669 336.993 98.1324 336.53 97.9482 336.141C97.764 335.753 97.3007 335.589 96.9122 335.773C96.5251 335.957 96.3596 336.421 96.5438 336.808ZM94.112 342.164C93.8113 342.306 93.4515 342.18 93.3091 341.877C93.1652 341.577 93.2932 341.217 93.5954 341.074C93.8947 340.931 94.2559 341.06 94.3984 341.361C94.5408 341.66 94.4127 342.021 94.112 342.164Z" fill="#F0E1D1"/>
<path fill-rule="evenodd" clip-rule="evenodd" d="M83.9847 350.958C83.6624 350.958 83.3444 350.875 83.058 350.712C82.6191 350.463 82.304 350.06 82.1687 349.574C82.0335 349.089 82.0968 348.58 82.3457 348.141C82.5947 347.703 82.9976 347.387 83.484 347.254C84.4855 346.977 85.5259 347.565 85.8036 348.567C86.0813 349.57 85.4913 350.611 84.4898 350.889C84.3229 350.935 84.1516 350.958 83.9847 350.958ZM83.9851 347.634C83.8585 347.634 83.729 347.651 83.6023 347.687C83.2325 347.79 82.9246 348.028 82.7361 348.364C82.5476 348.698 82.4987 349.085 82.6008 349.454C82.7044 349.823 82.9447 350.132 83.2771 350.321C83.611 350.509 83.9995 350.558 84.3679 350.456C85.1305 350.244 85.5809 349.452 85.3694 348.689C85.1938 348.051 84.6139 347.634 83.9851 347.634Z" fill="white"/>
<path d="M84.1939 348.453C84.2645 348.709 84.5292 348.859 84.7854 348.787C85.0401 348.716 85.1897 348.453 85.1192 348.198C85.0473 347.942 84.7839 347.793 84.5292 347.863C84.2731 347.935 84.1234 348.198 84.1939 348.453Z" fill="#F0E1D1"/>
<path fill-rule="evenodd" clip-rule="evenodd" d="M80.2376 352.307C79.8634 352.307 79.4936 352.211 79.1569 352.021C78.6461 351.732 78.2777 351.26 78.1223 350.693C77.964 350.127 78.0374 349.533 78.3266 349.022C78.6173 348.511 79.0878 348.144 79.6548 347.986C80.2217 347.829 80.8146 347.903 81.3269 348.192C81.8377 348.482 82.2061 348.953 82.3615 349.52C82.5198 350.087 82.4464 350.68 82.1572 351.191C81.8679 351.701 81.3959 352.071 80.829 352.227C80.6333 352.281 80.4361 352.307 80.2376 352.307ZM78.5562 350.573C78.6799 351.025 78.9735 351.399 79.3807 351.629C79.788 351.861 80.2585 351.917 80.7089 351.793C81.1607 351.669 81.5349 351.376 81.7665 350.969C81.9968 350.563 82.0543 350.091 81.9291 349.639C81.8054 349.189 81.5133 348.813 81.1046 348.583C80.6988 348.353 80.2268 348.295 79.7764 348.419C79.3246 348.544 78.9505 348.838 78.7188 349.243C78.49 349.649 78.431 350.124 78.5562 350.573Z" fill="white"/>
<path d="M80.4893 349.373C80.5742 349.675 80.8879 349.853 81.1915 349.77C81.4951 349.685 81.6736 349.371 81.5901 349.068C81.5066 348.764 81.1915 348.586 80.8865 348.669C80.5843 348.755 80.4058 349.068 80.4893 349.373Z" fill="#F0E1D1"/>
<path fill-rule="evenodd" clip-rule="evenodd" d="M75.666 352.141C74.3881 352.141 73.3032 351.151 73.2039 349.856C73.1535 349.198 73.3636 348.559 73.7939 348.059C74.2227 347.558 74.8227 347.256 75.4803 347.205C76.1379 347.156 76.7768 347.365 77.2776 347.795C77.7784 348.225 78.0805 348.824 78.1309 349.483C78.2345 350.84 77.2128 352.03 75.8545 352.132C75.7911 352.138 75.7278 352.141 75.666 352.141ZM75.6712 347.649C75.6194 347.649 75.569 347.652 75.5158 347.655C74.9776 347.696 74.4883 347.944 74.1358 348.353C73.7832 348.763 73.612 349.284 73.6523 349.822C73.7386 350.935 74.7099 351.769 75.8223 351.686C76.9317 351.602 77.7677 350.63 77.6829 349.519C77.6426 348.979 77.3951 348.488 76.9849 348.137C76.6166 347.819 76.1547 347.649 75.6712 347.649Z" fill="white"/>
<path fill-rule="evenodd" clip-rule="evenodd" d="M90.825 344.99C90.5991 345.097 90.3329 345 90.2264 344.777C90.1199 344.553 90.2149 344.284 90.4394 344.177C90.6624 344.071 90.9315 344.167 91.038 344.39C91.1445 344.615 91.0495 344.884 90.825 344.99ZM76.8012 349.503C76.4443 349.531 76.1321 349.264 76.1062 348.906C76.0788 348.549 76.345 348.237 76.7019 348.21C77.0602 348.184 77.3725 348.451 77.3984 348.808C77.4257 349.165 77.1581 349.477 76.8012 349.503Z" fill="#F0E1D1"/>
<path fill-rule="evenodd" clip-rule="evenodd" d="M104.831 316.696C103.749 316.696 102.863 315.824 102.849 314.74C102.841 314.209 103.04 313.708 103.411 313.33C103.78 312.95 104.276 312.737 104.804 312.73C105.338 312.72 105.836 312.921 106.214 313.292C106.594 313.661 106.807 314.157 106.814 314.685C106.83 315.78 105.951 316.681 104.859 316.696H104.831ZM104.831 313.18H104.809C104.401 313.186 104.017 313.35 103.732 313.642C103.447 313.937 103.291 314.324 103.297 314.735C103.309 315.579 104.011 316.257 104.853 316.247C105.697 316.234 106.376 315.537 106.365 314.693C106.358 314.283 106.194 313.9 105.902 313.615C105.612 313.334 105.233 313.18 104.831 313.18Z" fill="white"/>
<path d="M104.753 314.001C104.756 314.275 104.98 314.493 105.252 314.489C105.524 314.486 105.743 314.262 105.74 313.988C105.736 313.715 105.513 313.498 105.239 313.502C104.967 313.506 104.748 313.729 104.753 314.001Z" fill="#F0E1D1"/>
<path fill-rule="evenodd" clip-rule="evenodd" d="M106.105 312.784C105.813 312.784 105.527 312.695 105.282 312.527C104.958 312.305 104.738 311.971 104.666 311.586C104.593 311.201 104.676 310.811 104.898 310.488C105.118 310.164 105.452 309.945 105.837 309.873C106.633 309.724 107.403 310.247 107.553 311.043C107.702 311.839 107.176 312.609 106.38 312.758C106.289 312.774 106.197 312.784 106.105 312.784ZM106.11 310.296C106.047 310.296 105.984 310.303 105.92 310.314C105.653 310.363 105.421 310.516 105.267 310.74C105.115 310.965 105.057 311.235 105.107 311.503C105.158 311.769 105.309 312.002 105.535 312.155C105.759 312.309 106.028 312.366 106.297 312.316C106.848 312.212 107.213 311.678 107.109 311.127C107.018 310.638 106.589 310.296 106.11 310.296Z" fill="white"/>
<path d="M105.969 310.83C106.005 311.02 106.187 311.144 106.376 311.11C106.566 311.074 106.691 310.891 106.655 310.702C106.621 310.511 106.438 310.387 106.246 310.423C106.058 310.458 105.934 310.64 105.969 310.83Z" fill="#F0E1D1"/>
<path fill-rule="evenodd" clip-rule="evenodd" d="M107.339 318.236C106.978 318.236 106.637 318.097 106.377 317.844C106.113 317.588 105.965 317.244 105.959 316.874C105.955 316.506 106.093 316.156 106.351 315.893C106.607 315.63 106.952 315.481 107.321 315.476H107.341C108.093 315.476 108.709 316.081 108.719 316.837C108.729 317.598 108.119 318.225 107.358 318.236H107.339ZM107.341 315.927H107.327C107.078 315.93 106.846 316.031 106.674 316.208C106.499 316.386 106.407 316.621 106.41 316.869C106.413 317.118 106.514 317.349 106.692 317.523C106.869 317.697 107.104 317.793 107.353 317.788C107.865 317.779 108.278 317.357 108.271 316.844C108.262 316.336 107.848 315.927 107.341 315.927Z" fill="white"/>
<path fill-rule="evenodd" clip-rule="evenodd" d="M107.616 316.71C107.436 316.711 107.289 316.569 107.286 316.389C107.285 316.21 107.427 316.062 107.607 316.061C107.785 316.058 107.932 316.202 107.935 316.38C107.938 316.56 107.794 316.707 107.616 316.71ZM88.2249 346.707C88.091 346.77 87.9299 346.714 87.8666 346.579C87.8032 346.445 87.8594 346.285 87.9946 346.22C88.1284 346.156 88.2882 346.215 88.3529 346.348C88.4162 346.482 88.3587 346.643 88.2249 346.707Z" fill="#F0E1D1"/>
<path d="M553.059 244.475L610.674 354.647C611.03 355.324 610.824 356.127 610.219 356.444L604.374 359.5C603.77 359.816 602.992 359.526 602.638 358.85L545.023 248.68C544.972 248.585 544.933 248.488 544.909 248.389L552.885 244.216C552.953 244.295 553.01 244.383 553.059 244.475Z" fill="#2FABE0"/>
<path d="M606.749 358.259L604.374 359.501C603.77 359.816 602.992 359.527 602.638 358.851L545.023 248.68C544.972 248.585 544.933 248.489 544.909 248.39L547.283 247.146C547.302 247.223 547.331 247.298 547.362 247.368C547.372 247.391 547.387 247.416 547.397 247.439L605.012 357.608C605.366 358.285 606.144 358.576 606.749 358.259Z" fill="#6BCCF6"/>
<path d="M550.229 245.956L607.844 356.127C608.198 356.806 608.311 357.442 608.099 357.554L606.038 358.63C605.827 358.743 605.366 358.285 605.012 357.607L547.397 247.438C547.387 247.415 547.373 247.391 547.363 247.368C547.327 247.299 547.294 247.227 547.262 247.158L550.075 245.686C550.129 245.773 550.179 245.864 550.229 245.956Z" fill="#45BBEE"/>
<path d="M544.907 248.391C544.907 248.391 539.653 229.737 540.099 229.477C540.545 229.219 552.892 244.215 552.892 244.215L544.907 248.391Z" fill="#E7A663"/>
<path d="M541.542 236.034C541.542 236.034 539.765 229.422 540.023 229.347C540.347 229.252 544.648 234.381 544.648 234.381L541.542 236.034Z" fill="#283335"/>
<path d="M207.869 387.484C206.996 387.484 206.131 387.23 205.391 386.74C205.106 386.418 204.769 386.112 204.381 385.824C204.315 385.74 204.251 385.654 204.188 385.566L195.409 372.968L241.072 365.324L210.427 386.68C209.648 387.224 208.754 387.484 207.869 387.484Z" fill="#B78B49"/>
<path d="M205.39 386.739C205.016 386.493 204.675 386.185 204.38 385.822C204.768 386.11 205.105 386.417 205.39 386.739Z" fill="#856636"/>
<path fill-rule="evenodd" clip-rule="evenodd" d="M385.522 251.479L392.127 253.156L392.195 252.892L386.724 251.502L386.703 251.501C386.31 251.494 385.915 251.487 385.522 251.479ZM395.497 254.013L393.462 253.497L393.531 253.23L395.565 253.748L395.497 254.013ZM399.376 254.997L396.832 254.352L396.901 254.086L399.674 254.791L399.376 254.997Z" fill="url(#paint2_radial)"/>
<path fill-rule="evenodd" clip-rule="evenodd" d="M381.996 250.59L384.028 251.114L384.097 250.844L382.062 250.32L381.996 250.59ZM386.702 251.518L386.723 251.519L385.432 251.186L385.364 251.456L385.521 251.495C385.914 251.504 386.309 251.511 386.702 251.518Z" fill="#2C2A25"/>
<path d="M380.689 250.134C380.512 250.13 380.335 250.124 380.158 250.12L374.841 248.769L374.91 248.504L380.728 249.98L380.689 250.134Z" fill="url(#paint3_radial)"/>
<path d="M380.658 250.246L380.157 250.119C380.334 250.123 380.511 250.129 380.688 250.133L380.658 250.246Z" fill="#2C2A25"/>
<path fill-rule="evenodd" clip-rule="evenodd" d="M337.906 239.389L347.697 241.877L347.766 241.61L339.893 239.612C339.199 239.435 338.504 239.351 337.82 239.351H337.748C337.799 239.364 337.853 239.376 337.906 239.389ZM351.067 242.73L349.032 242.215L349.101 241.949L351.136 242.465L351.067 242.73ZM352.402 243.071L359.15 244.783L359.219 244.517L352.471 242.803L352.402 243.071ZM362.519 245.64L360.486 245.124L360.555 244.858L362.587 245.374L362.519 245.64ZM363.855 245.979L370.136 247.574L370.206 247.306L363.924 245.713L363.855 245.979ZM371.472 247.912L373.505 248.43L373.573 248.163L371.54 247.647L371.472 247.912Z" fill="url(#paint4_radial)"/>
<path fill-rule="evenodd" clip-rule="evenodd" d="M309.553 317.598L310.221 314.969L310.645 313.295L311.06 311.668L312.442 306.217L314.51 298.076L314.928 296.429L317.623 285.816L319.019 280.322L320.183 275.734L320.784 273.368L322.318 267.326L322.984 264.7L323.341 263.298L323.773 261.596L324.15 260.116L324.71 257.908L326.759 249.836L327.052 248.679L327.9 245.344C328.847 241.616 332.197 239.135 335.873 239.135C336.492 239.135 337.118 239.205 337.747 239.351C337.799 239.364 337.852 239.377 337.905 239.389L347.696 241.877L345.858 249.033L340.092 247.571C339.632 247.455 339.171 247.397 338.718 247.397C336.229 247.397 333.962 249.077 333.323 251.599L318.072 311.66L309.553 317.598ZM391.705 260.346L393.463 253.499L395.498 254.014L394.344 258.507L391.705 260.346ZM383.527 258.599L390.288 260.315L392.126 253.156L385.521 251.479L385.364 251.44L383.527 258.599ZM382.189 258.259L380.156 257.744L381.995 250.585L384.027 251.102L382.189 258.259ZM373.002 255.927L378.82 257.405L380.657 250.246L380.157 250.119L374.84 248.768L373.002 255.927ZM396.076 257.297L396.831 254.353L399.375 254.997L396.076 257.297ZM369.633 255.071L371.666 255.587L373.505 248.43L371.472 247.912L369.633 255.071ZM368.297 254.734L362.016 253.139L363.854 245.98L370.135 247.575L368.297 254.734ZM358.648 252.283L360.681 252.798L362.519 245.64L360.485 245.124L358.648 252.283ZM357.31 251.943L350.563 250.23L352.401 243.071L359.148 244.784L357.31 251.943ZM347.194 249.374L349.228 249.889L351.066 242.73L349.031 242.215L347.194 249.374Z" fill="#BFC6C4"/>
<path fill-rule="evenodd" clip-rule="evenodd" d="M318.072 311.659L333.324 251.598C333.963 249.076 336.229 247.396 338.719 247.396C339.172 247.396 339.632 247.454 340.093 247.571L345.859 249.033L344.129 255.773C343.234 256.258 342.528 257.118 342.25 258.206C341.729 260.234 342.884 262.28 344.828 262.779C345.122 262.854 345.414 262.89 345.703 262.89C347.341 262.89 348.85 261.737 349.294 260.016C349.571 258.934 349.371 257.845 348.829 256.992L350.564 250.23L357.312 251.942L355.573 258.713C354.68 259.197 353.975 260.058 353.695 261.146C353.175 263.17 354.331 265.218 356.275 265.717C356.568 265.792 356.86 265.828 357.149 265.828C358.786 265.828 360.296 264.676 360.739 262.953C361.017 261.871 360.817 260.785 360.274 259.928L362.017 253.138L368.298 254.732L366.551 261.533C365.659 262.021 364.955 262.878 364.676 263.966C364.157 265.991 365.312 268.039 367.258 268.538C367.548 268.613 367.84 268.649 368.13 268.649C369.769 268.649 371.28 267.496 371.721 265.774C371.999 264.69 371.798 263.599 371.254 262.745L373.004 255.927L378.821 257.405L377.07 264.232C376.176 264.72 375.473 265.578 375.194 266.666C374.775 268.296 375.441 269.939 376.73 270.78L338.396 297.497L336.118 296.919L335.451 299.549L318.072 311.659ZM382.314 266.89C382.232 266.369 382.045 265.878 381.77 265.446L383.528 258.6L390.29 260.316L389.972 261.552L382.314 266.89ZM380.637 264.317C380.34 264.135 380.011 263.992 379.658 263.901C379.365 263.827 379.073 263.791 378.783 263.791C378.724 263.791 378.664 263.792 378.603 263.795L380.158 257.744L382.191 258.259L380.637 264.317ZM370.118 261.619C369.822 261.435 369.493 261.292 369.139 261.203C368.849 261.128 368.555 261.092 368.267 261.092C368.207 261.092 368.148 261.094 368.088 261.097L369.633 255.072L371.666 255.588L370.118 261.619ZM359.14 258.801C358.842 258.617 358.514 258.475 358.158 258.383C357.866 258.308 357.574 258.272 357.285 258.272C357.226 258.272 357.167 258.273 357.109 258.276L358.648 252.283L360.681 252.798L359.14 258.801ZM347.695 255.862C347.397 255.677 347.069 255.534 346.714 255.443C346.422 255.369 346.13 255.333 345.839 255.333C345.781 255.333 345.722 255.334 345.665 255.337L347.194 249.374L349.229 249.889L347.695 255.862Z" fill="#C0C7C6"/>
<path fill-rule="evenodd" clip-rule="evenodd" d="M344.828 262.781C345.121 262.855 345.414 262.891 345.703 262.891C347.34 262.891 348.85 261.739 349.293 260.018C349.571 258.936 349.371 257.846 348.828 256.993L348.103 259.811C348.024 260.121 347.742 260.329 347.435 260.329C347.378 260.329 347.322 260.321 347.264 260.307C346.897 260.214 346.674 259.837 346.768 259.47L347.694 255.864C347.396 255.678 347.068 255.535 346.713 255.445C346.421 255.37 346.129 255.334 345.838 255.334C345.78 255.334 345.721 255.335 345.664 255.338L344.734 258.956C344.655 259.267 344.373 259.474 344.065 259.474C344.011 259.474 343.952 259.465 343.894 259.452C343.527 259.357 343.304 258.98 343.399 258.613L344.129 255.774C343.233 256.259 342.527 257.12 342.249 258.208C341.728 260.235 342.884 262.281 344.828 262.781ZM357.149 265.83C356.86 265.83 356.568 265.794 356.276 265.719C354.332 265.22 353.175 263.173 353.696 261.148C353.975 260.06 354.68 259.2 355.574 258.715L354.853 261.522C354.759 261.889 354.984 262.266 355.351 262.361C355.405 262.375 355.464 262.381 355.52 262.381C355.827 262.381 356.109 262.175 356.188 261.864L357.11 258.277C357.168 258.274 357.227 258.273 357.286 258.273C357.575 258.273 357.867 258.309 358.159 258.384C358.515 258.476 358.843 258.618 359.141 258.802L358.223 262.377C358.128 262.745 358.352 263.122 358.718 263.217C358.775 263.23 358.834 263.237 358.889 263.237C359.197 263.237 359.479 263.031 359.558 262.721L360.275 259.931C360.817 260.787 361.017 261.873 360.74 262.955C360.296 264.678 358.787 265.83 357.149 265.83ZM367.259 268.54C367.55 268.615 367.842 268.651 368.131 268.651C369.77 268.651 371.281 267.498 371.723 265.776C372 264.692 371.799 263.601 371.255 262.747L370.544 265.51C370.465 265.82 370.183 266.028 369.876 266.028C369.82 266.028 369.763 266.02 369.705 266.006C369.34 265.912 369.117 265.534 369.21 265.167L370.12 261.62C369.823 261.436 369.495 261.293 369.141 261.204C368.85 261.129 368.557 261.093 368.269 261.093C368.209 261.093 368.15 261.095 368.089 261.098L367.175 264.655C367.095 264.964 366.813 265.171 366.506 265.171C366.45 265.171 366.394 265.166 366.337 265.15C365.97 265.056 365.747 264.678 365.84 264.311L366.552 261.535C365.66 262.023 364.957 262.881 364.677 263.968C364.158 265.993 365.313 268.041 367.259 268.54ZM376.73 270.781C375.441 269.94 374.775 268.297 375.194 266.667C375.473 265.579 376.176 264.721 377.07 264.234L376.364 266.982C376.269 267.35 376.493 267.727 376.86 267.822C376.916 267.837 376.974 267.842 377.031 267.842C377.336 267.842 377.62 267.637 377.699 267.326L378.604 263.796C378.664 263.793 378.725 263.792 378.784 263.792C379.073 263.792 379.365 263.828 379.659 263.903C380.011 263.993 380.341 264.136 380.637 264.318L379.734 267.838C379.666 268.1 379.76 268.369 379.955 268.535L376.73 270.781ZM381.2 267.666L381.77 265.447C382.045 265.879 382.232 266.37 382.314 266.89L381.2 267.666Z" fill="#9DAAAF"/>
<path fill-rule="evenodd" clip-rule="evenodd" d="M343.895 259.452C343.952 259.465 344.011 259.474 344.066 259.474C344.374 259.474 344.656 259.266 344.735 258.955L345.665 255.338L347.194 249.375L349.032 242.216L349.101 241.95L349.655 239.797C349.749 239.429 349.526 239.052 349.159 238.958C349.101 238.944 349.043 238.937 348.987 238.937C348.679 238.937 348.399 239.145 348.318 239.455L347.766 241.61L347.697 241.878L345.859 249.034L344.129 255.774L343.4 258.613C343.305 258.98 343.528 259.357 343.895 259.452ZM347.435 260.328C347.378 260.328 347.322 260.321 347.264 260.306C346.897 260.213 346.674 259.836 346.768 259.469L347.694 255.863L349.228 249.89L351.066 242.731L351.135 242.466L351.687 240.309C351.767 239.998 352.049 239.792 352.357 239.792C352.411 239.792 352.47 239.8 352.526 239.813C352.895 239.908 353.116 240.285 353.023 240.651L352.47 242.804L352.401 243.072L350.564 250.231L348.828 256.992L348.103 259.81C348.024 260.121 347.742 260.328 347.435 260.328ZM355.35 262.36C355.405 262.375 355.464 262.38 355.52 262.38C355.826 262.38 356.108 262.175 356.188 261.864L357.11 258.276L358.648 252.283L360.486 245.124L360.555 244.858L361.107 242.707C361.202 242.338 360.978 241.961 360.611 241.866C360.555 241.852 360.497 241.845 360.44 241.845C360.133 241.845 359.851 242.052 359.772 242.363L359.218 244.518L359.149 244.785L357.311 251.944L355.573 258.714L354.852 261.521C354.759 261.888 354.983 262.265 355.35 262.36ZM358.888 263.236C358.834 263.236 358.775 263.229 358.717 263.216C358.352 263.121 358.127 262.744 358.222 262.376L359.14 258.802L360.681 252.798L362.519 245.641L362.587 245.375L363.141 243.219C363.221 242.908 363.502 242.699 363.81 242.699C363.867 242.699 363.923 242.708 363.981 242.722C364.348 242.817 364.571 243.193 364.477 243.56L363.923 245.714L363.854 245.98L362.017 253.139L360.274 259.93L359.558 262.72C359.478 263.031 359.196 263.236 358.888 263.236ZM366.336 265.149C366.393 265.165 366.449 265.171 366.505 265.171C366.812 265.171 367.094 264.963 367.175 264.654L368.088 261.097L369.634 255.072L371.473 247.913L371.54 247.648L372.093 245.496C372.188 245.129 371.965 244.75 371.597 244.657C371.54 244.641 371.483 244.634 371.427 244.634C371.119 244.634 370.837 244.842 370.758 245.153L370.205 247.307L370.136 247.575L368.298 254.734L366.552 261.534L365.839 264.31C365.746 264.677 365.969 265.056 366.336 265.149ZM369.875 266.026C369.819 266.026 369.761 266.019 369.704 266.005C369.338 265.911 369.115 265.533 369.209 265.166L370.118 261.619L371.666 255.588L373.505 248.43L373.573 248.163L374.127 246.007C374.206 245.698 374.488 245.489 374.795 245.489C374.852 245.489 374.91 245.496 374.966 245.512C375.333 245.604 375.557 245.983 375.462 246.35L374.91 248.504L374.841 248.769L373.003 255.927L371.253 262.745L370.543 265.508C370.463 265.819 370.181 266.026 369.875 266.026ZM376.86 267.822C376.916 267.836 376.973 267.842 377.031 267.842C377.336 267.842 377.619 267.636 377.699 267.326L378.604 263.796L380.158 257.745L381.997 250.586L382.063 250.32L382.1 250.176L382.617 248.166C382.711 247.799 382.488 247.423 382.121 247.328C382.063 247.314 382.007 247.305 381.949 247.305C381.644 247.305 381.362 247.514 381.282 247.825L380.728 249.98L380.689 250.134L380.659 250.246L378.821 257.405L377.07 264.233L376.363 266.982C376.268 267.35 376.493 267.727 376.86 267.822ZM379.955 268.535C379.76 268.369 379.666 268.1 379.734 267.838L380.637 264.318L382.191 258.26L384.029 251.103L384.098 250.837L384.251 250.24L384.651 248.681C384.731 248.37 385.013 248.162 385.32 248.162C385.377 248.162 385.433 248.169 385.491 248.183C385.858 248.277 386.081 248.655 385.986 249.022L385.662 250.281L385.433 251.175L385.366 251.441L383.528 258.6L381.77 265.447L381.2 267.665L379.955 268.535ZM390.289 260.316L389.971 261.552L391.704 260.344L393.462 253.498L393.531 253.23L393.94 251.643L394.084 251.077C394.134 250.883 394.094 250.683 393.99 250.528C393.899 250.388 393.76 250.283 393.587 250.239C393.53 250.226 393.473 250.217 393.417 250.217C393.199 250.217 392.993 250.322 392.865 250.493C392.812 250.564 392.771 250.644 392.75 250.735L392.522 251.613L392.194 252.892L392.127 253.157L390.289 260.316ZM395.498 254.014L394.344 258.507L396.078 257.298L396.833 254.354L396.903 254.088L397.454 251.935C397.472 251.864 397.48 251.793 397.475 251.723C397.457 251.433 397.255 251.172 396.957 251.096C396.901 251.08 396.844 251.074 396.789 251.074C396.481 251.074 396.199 251.282 396.12 251.592L396.092 251.692L395.566 253.75L395.498 254.014Z" fill="#596C77"/>
<path d="M335.45 299.549L336.118 296.919L338.396 297.497L335.45 299.549Z" fill="#9DAAAF"/>
<path d="M428.204 225.557C429.612 227.592 429.104 230.383 427.071 231.792L205.562 385.139C203.527 386.548 200.734 386.041 199.325 384.005L159.352 326.262C157.942 324.227 158.45 321.434 160.485 320.026L381.994 166.679C384.029 165.27 386.82 165.778 388.229 167.814L428.204 225.557Z" fill="#C5CBCA"/>
<path fill-rule="evenodd" clip-rule="evenodd" d="M377.46 173.646C377.058 173.926 376.959 174.477 377.236 174.88L381.844 181.535C382.123 181.936 382.674 182.037 383.077 181.758L389.734 177.15C390.135 176.874 390.236 176.321 389.957 175.919L385.349 169.263C385.07 168.86 384.519 168.76 384.118 169.039L377.46 173.646ZM367.367 181.713C367.088 181.31 367.189 180.759 367.592 180.479L374.247 175.872C374.65 175.594 375.202 175.695 375.479 176.096L380.088 182.753C380.365 183.154 380.265 183.707 379.863 183.985L373.208 188.592C372.805 188.87 372.254 188.771 371.975 188.368L367.367 181.713ZM397.621 186.989C397.9 187.391 397.799 187.942 397.398 188.221L390.741 192.828C390.338 193.108 389.787 193.007 389.508 192.605L384.9 185.95C384.622 185.547 384.722 184.995 385.123 184.717L391.781 180.109C392.183 179.83 392.734 179.931 393.013 180.334L397.621 186.989ZM387.526 195.054C387.929 194.776 388.03 194.225 387.752 193.822L383.143 187.167C382.865 186.765 382.313 186.663 381.911 186.941L375.255 191.55C374.852 191.828 374.752 192.382 375.03 192.783L379.638 199.438C379.917 199.841 380.468 199.941 380.871 199.663L387.526 195.054ZM377.88 200.652C378.159 201.055 378.058 201.606 377.657 201.885L371 206.493C370.599 206.772 370.046 206.671 369.769 206.268L365.161 199.613C364.882 199.212 364.983 198.658 365.385 198.378L372.041 193.771C372.442 193.495 372.995 193.594 373.272 193.997L377.88 200.652ZM394.747 203.93C395.026 204.333 394.926 204.884 394.524 205.162L387.869 209.771C387.466 210.049 386.913 209.949 386.636 209.546L382.027 202.891C381.749 202.488 381.848 201.936 382.253 201.658L388.908 197.049C389.309 196.771 389.86 196.871 390.14 197.275L394.747 203.93ZM384.655 211.994C385.058 211.715 385.158 211.164 384.88 210.761L380.272 204.106C379.993 203.702 379.442 203.602 379.039 203.88L372.382 208.488C371.981 208.767 371.88 209.319 372.159 209.722L376.767 216.378C377.046 216.78 377.597 216.881 377.999 216.602L384.655 211.994ZM375.009 217.595C375.288 217.996 375.188 218.547 374.786 218.827L368.13 223.434C367.727 223.713 367.176 223.613 366.897 223.211L362.29 216.554C362.01 216.151 362.111 215.599 362.514 215.321L369.169 210.712C369.572 210.436 370.123 210.535 370.401 210.938L375.009 217.595ZM359.307 229.544C359.71 229.265 359.81 228.714 359.53 228.309L354.923 221.654C354.645 221.251 354.094 221.151 353.691 221.43L347.036 226.037C346.633 226.316 346.532 226.868 346.811 227.272L351.419 233.927C351.697 234.33 352.249 234.431 352.652 234.152L359.307 229.544ZM349.711 235.107C349.99 235.511 349.89 236.061 349.488 236.34L342.832 240.948C342.43 241.225 341.876 241.126 341.598 240.725L336.989 234.068C336.713 233.665 336.814 233.112 337.215 232.835L343.872 228.227C344.273 227.948 344.825 228.049 345.104 228.452L349.711 235.107ZM339.667 243.141C340.068 242.862 340.169 242.311 339.89 241.906L335.282 235.251C335.003 234.848 334.452 234.747 334.05 235.027L327.394 239.634C326.992 239.913 326.892 240.464 327.171 240.867L331.778 247.524C332.056 247.927 332.609 248.026 333.011 247.749L339.667 243.141ZM324.561 252.519C324.84 252.922 324.74 253.473 324.338 253.752L312.481 261.959C312.08 262.238 311.528 262.137 311.249 261.736L306.642 255.079C306.363 254.676 306.463 254.125 306.865 253.846L318.722 245.638C319.123 245.36 319.674 245.46 319.954 245.862L324.561 252.519ZM309.433 264.068C309.838 263.79 309.935 263.237 309.658 262.835L305.05 256.179C304.771 255.776 304.221 255.677 303.817 255.955L297.162 260.562C296.759 260.842 296.658 261.393 296.937 261.796L301.545 268.451C301.824 268.854 302.375 268.954 302.778 268.677L309.433 264.068ZM299.954 269.554C300.232 269.957 300.132 270.508 299.729 270.787L293.074 275.395C292.673 275.672 292.119 275.572 291.841 275.17L287.232 268.513C286.956 268.112 287.055 267.559 287.458 267.282L294.113 262.674C294.516 262.395 295.067 262.496 295.345 262.899L299.954 269.554ZM290.027 277.504C290.429 277.226 290.529 276.674 290.25 276.272L285.643 269.616C285.363 269.213 284.812 269.113 284.411 269.391L277.754 273.999C277.353 274.278 277.252 274.83 277.531 275.232L282.139 281.889C282.416 282.29 282.969 282.391 283.37 282.112L290.027 277.504ZM280.545 282.989C280.824 283.392 280.723 283.943 280.322 284.222L273.665 288.829C273.263 289.107 272.712 289.008 272.433 288.604L267.826 281.948C267.546 281.545 267.647 280.994 268.049 280.717L274.705 276.108C275.107 275.83 275.659 275.931 275.937 276.332L280.545 282.989ZM270.62 290.94C271.021 290.662 271.122 290.11 270.843 289.707L266.235 283.052C265.956 282.649 265.405 282.548 265.002 282.827L258.345 287.435C257.944 287.714 257.843 288.265 258.122 288.667L262.73 295.323C263.009 295.726 263.56 295.827 263.961 295.548L270.62 290.94ZM261.141 296.425C261.418 296.826 261.319 297.379 260.916 297.656L254.261 302.264C253.858 302.543 253.305 302.442 253.026 302.041L248.419 295.384C248.141 294.983 248.24 294.43 248.645 294.153L255.3 289.545C255.703 289.266 256.254 289.367 256.532 289.768L261.141 296.425ZM251.211 304.375C251.614 304.096 251.715 303.545 251.435 303.143L246.828 296.486C246.549 296.084 245.998 295.984 245.595 296.262L238.939 300.87C238.536 301.147 238.436 301.698 238.715 302.103L243.322 308.758C243.6 309.161 244.153 309.262 244.556 308.982L251.211 304.375ZM241.732 309.859C242.01 310.263 241.909 310.815 241.507 311.094L234.851 315.701C234.449 315.979 233.898 315.88 233.619 315.475L229.011 308.82C228.732 308.417 228.833 307.866 229.234 307.587L235.89 302.979C236.293 302.7 236.845 302.801 237.123 303.204L241.732 309.859ZM231.804 317.81C232.206 317.533 232.307 316.979 232.027 316.578L227.42 309.921C227.141 309.52 226.59 309.419 226.187 309.698L219.53 314.306C219.128 314.585 219.028 315.136 219.307 315.537L223.914 322.194C224.194 322.596 224.745 322.696 225.148 322.419L231.804 317.81ZM222.323 323.295C222.602 323.697 222.502 324.248 222.1 324.527L215.443 329.135C215.042 329.414 214.489 329.313 214.212 328.912L209.603 322.255C209.325 321.852 209.424 321.3 209.827 321.023L216.484 316.416C216.885 316.137 217.436 316.237 217.716 316.639L222.323 323.295ZM212.397 331.247C212.8 330.968 212.899 330.417 212.62 330.014L208.012 323.359C207.734 322.955 207.182 322.857 206.78 323.133L200.125 327.741C199.722 328.02 199.622 328.571 199.901 328.975L204.508 335.63C204.787 336.033 205.339 336.134 205.741 335.855L212.397 331.247ZM202.917 336.73C203.195 337.133 203.096 337.685 202.691 337.964L196.036 342.572C195.633 342.848 195.082 342.749 194.803 342.346L190.195 335.689C189.916 335.288 190.017 334.737 190.42 334.458L197.075 329.85C197.478 329.571 198.03 329.672 198.308 330.075L202.917 336.73ZM193.213 343.449C193.492 343.85 193.392 344.403 192.99 344.68L182.224 352.133C181.821 352.412 181.27 352.311 180.991 351.91L176.383 345.253C176.104 344.85 176.205 344.3 176.606 344.021L187.372 336.569C187.775 336.29 188.327 336.39 188.606 336.792L193.213 343.449ZM212.032 346.449C212.435 346.173 212.536 345.62 212.256 345.217L207.649 338.562C207.37 338.159 206.819 338.058 206.417 338.338L199.76 342.945C199.359 343.224 199.258 343.775 199.537 344.178L204.145 350.834C204.423 351.235 204.975 351.336 205.377 351.058L212.032 346.449ZM222.006 338.467C222.285 338.87 222.185 339.421 221.783 339.7L215.126 344.308C214.725 344.587 214.172 344.486 213.895 344.084L209.287 337.428C209.008 337.025 209.109 336.473 209.51 336.195L216.167 331.588C216.568 331.31 217.119 331.409 217.399 331.812L222.006 338.467ZM231.535 332.951C231.936 332.672 232.037 332.12 231.758 331.717L227.15 325.062C226.872 324.659 226.32 324.559 225.918 324.838L219.263 329.445C218.86 329.723 218.759 330.276 219.039 330.679L223.646 337.334C223.925 337.737 224.476 337.836 224.878 337.558L231.535 332.951ZM241.507 324.967C241.787 325.369 241.686 325.921 241.284 326.2L234.629 330.808C234.226 331.086 233.675 330.986 233.396 330.582L228.788 323.927C228.509 323.525 228.61 322.974 229.013 322.695L235.668 318.087C236.071 317.808 236.624 317.909 236.901 318.312L241.507 324.967ZM251.035 319.45C251.438 319.17 251.539 318.619 251.26 318.216L246.652 311.561C246.374 311.158 245.822 311.059 245.419 311.335L238.764 315.943C238.361 316.222 238.262 316.775 238.539 317.178L243.147 323.833C243.426 324.236 243.977 324.336 244.38 324.057L251.035 319.45ZM261.01 311.467C261.289 311.87 261.188 312.42 260.785 312.699L254.13 317.307C253.729 317.586 253.177 317.485 252.898 317.084L248.291 310.427C248.011 310.025 248.112 309.474 248.514 309.195L255.17 304.588C255.572 304.308 256.124 304.409 256.402 304.812L261.01 311.467ZM270.538 305.949C270.94 305.67 271.04 305.119 270.761 304.715L266.154 298.059C265.876 297.658 265.323 297.557 264.922 297.836L258.265 302.444C257.864 302.722 257.763 303.274 258.042 303.676L262.65 310.331C262.929 310.735 263.48 310.835 263.882 310.557L270.538 305.949ZM280.512 297.966C280.79 298.369 280.689 298.92 280.288 299.198L273.631 303.807C273.23 304.085 272.679 303.984 272.4 303.583L267.792 296.927C267.513 296.524 267.614 295.972 268.015 295.694L274.672 291.085C275.073 290.807 275.626 290.907 275.903 291.311L280.512 297.966ZM290.04 292.448C290.442 292.17 290.542 291.618 290.264 291.215L285.658 284.56C285.379 284.158 284.826 284.057 284.423 284.337L277.768 288.944C277.365 289.222 277.264 289.774 277.544 290.176L282.151 296.831C282.43 297.234 282.981 297.335 283.384 297.056L290.04 292.448ZM300.013 284.464C300.291 284.869 300.191 285.42 299.789 285.699L293.133 290.307C292.73 290.586 292.179 290.485 291.9 290.082L287.293 283.427C287.015 283.023 287.114 282.471 287.517 282.192L294.172 277.585C294.575 277.306 295.128 277.408 295.407 277.809L300.013 284.464ZM309.54 278.947C309.944 278.668 310.044 278.117 309.766 277.715L305.158 271.06C304.879 270.657 304.328 270.557 303.924 270.836L297.268 275.443C296.865 275.721 296.766 276.274 297.045 276.675L301.651 283.332C301.931 283.733 302.482 283.834 302.885 283.555L309.54 278.947ZM331.556 262.626C331.836 263.03 331.735 263.581 331.333 263.86L312.635 276.804C312.232 277.083 311.681 276.982 311.402 276.579L306.795 269.924C306.515 269.521 306.616 268.97 307.018 268.691L325.717 255.746C326.119 255.468 326.673 255.569 326.949 255.97L331.556 262.626ZM202.283 353.202C202.686 352.923 202.786 352.372 202.507 351.969L197.9 345.313C197.621 344.912 197.069 344.811 196.667 345.089L183.606 354.131C183.205 354.409 183.104 354.962 183.383 355.363L187.991 362.018C188.269 362.421 188.821 362.522 189.223 362.243L202.283 353.202ZM382.008 227.705C382.287 228.106 382.186 228.658 381.785 228.937L375.128 233.544C374.725 233.823 374.174 233.723 373.895 233.32L369.287 226.665C369.01 226.262 369.109 225.709 369.51 225.43L376.169 220.822C376.57 220.546 377.121 220.645 377.4 221.048L382.008 227.705ZM391.653 222.104C392.056 221.825 392.156 221.274 391.877 220.871L387.27 214.216C386.99 213.813 386.439 213.712 386.036 213.99L379.381 218.598C378.98 218.877 378.879 219.429 379.157 219.832L383.764 226.487C384.042 226.89 384.596 226.99 384.998 226.712L391.653 222.104ZM401.747 214.039C402.025 214.442 401.926 214.993 401.523 215.271L394.866 219.879C394.465 220.158 393.913 220.059 393.634 219.656L389.027 212.999C388.748 212.598 388.848 212.045 389.25 211.767L395.906 207.158C396.308 206.881 396.86 206.98 397.138 207.384L401.747 214.039ZM425.389 228.656C425.791 228.377 425.891 227.826 425.612 227.423L414.006 210.659C413.728 210.257 413.175 210.157 412.774 210.433L406.117 215.042C405.716 215.32 405.615 215.874 405.894 216.275L417.498 233.039C417.777 233.442 418.33 233.543 418.733 233.264L425.389 228.656ZM223.068 352.687C223.346 353.09 223.246 353.641 222.842 353.921L216.187 358.528C215.785 358.807 215.234 358.707 214.955 358.304L210.347 351.648C210.068 351.247 210.169 350.693 210.57 350.417L217.227 345.809C217.63 345.53 218.181 345.631 218.46 346.032L223.068 352.687ZM232.669 347.117C233.072 346.837 233.173 346.286 232.894 345.885L228.286 339.23C228.007 338.827 227.456 338.726 227.055 339.004L220.396 343.613C219.995 343.89 219.896 344.443 220.173 344.844L224.781 351.501C225.06 351.903 225.611 352.003 226.014 351.724L232.669 347.117ZM242.721 339.082C243 339.484 242.899 340.036 242.496 340.315L235.841 344.922C235.44 345.2 234.887 345.101 234.609 344.698L230 338.043C229.723 337.64 229.823 337.087 230.225 336.808L236.882 332.2C237.283 331.923 237.834 332.023 238.113 332.426L242.721 339.082ZM252.324 333.512C252.727 333.232 252.827 332.681 252.548 332.28L247.941 325.622C247.661 325.22 247.11 325.121 246.709 325.399L240.052 330.006C239.651 330.285 239.55 330.837 239.829 331.239L244.437 337.895C244.714 338.298 245.267 338.398 245.668 338.119L252.324 333.512ZM262.374 325.475C262.653 325.879 262.552 326.43 262.149 326.708L255.494 331.315C255.093 331.593 254.542 331.494 254.262 331.092L249.655 324.437C249.376 324.033 249.476 323.482 249.878 323.203L256.534 318.595C256.936 318.316 257.489 318.417 257.766 318.819L262.374 325.475ZM271.977 319.906C272.38 319.627 272.481 319.074 272.203 318.671L267.594 312.016C267.316 311.614 266.764 311.514 266.362 311.793L259.705 316.4C259.304 316.678 259.203 317.231 259.482 317.632L264.09 324.287C264.369 324.692 264.92 324.791 265.322 324.513L271.977 319.906ZM282.029 311.869C282.307 312.271 282.208 312.823 281.804 313.101L275.148 317.71C274.747 317.988 274.196 317.887 273.917 317.485L269.309 310.829C269.03 310.427 269.13 309.876 269.532 309.597L276.189 304.989C276.592 304.71 277.143 304.811 277.422 305.214L282.029 311.869ZM291.632 306.299C292.035 306.021 292.135 305.468 291.856 305.066L287.249 298.41C286.97 298.009 286.418 297.907 286.017 298.186L279.36 302.793C278.957 303.073 278.858 303.624 279.136 304.027L283.743 310.682C284.023 311.085 284.574 311.185 284.977 310.906L291.632 306.299ZM301.683 298.264C301.962 298.665 301.861 299.216 301.458 299.495L294.803 304.103C294.402 304.382 293.849 304.281 293.571 303.879L288.962 297.223C288.685 296.822 288.784 296.271 289.187 295.992L295.844 291.384C296.245 291.105 296.796 291.206 297.075 291.607L301.683 298.264ZM311.286 292.692C311.687 292.414 311.788 291.863 311.509 291.46L306.901 284.805C306.622 284.402 306.071 284.301 305.669 284.581L299.013 289.188C298.611 289.466 298.511 290.019 298.79 290.421L303.397 297.077C303.675 297.478 304.228 297.579 304.629 297.301L311.286 292.692ZM363.706 255.325C363.986 255.728 363.885 256.279 363.483 256.559L356.827 261.166C356.425 261.444 355.873 261.345 355.595 260.94L350.987 254.285C350.708 253.884 350.809 253.331 351.21 253.053L357.867 248.446C358.269 248.167 358.82 248.267 359.099 248.669L363.706 255.325ZM338.333 273.97C338.735 273.691 338.836 273.14 338.556 272.736L333.949 266.081C333.67 265.679 333.119 265.578 332.717 265.856L308.84 282.387C308.439 282.663 308.338 283.217 308.617 283.619L313.225 290.274C313.504 290.677 314.055 290.778 314.457 290.498L338.333 273.97ZM213.24 359.491C213.518 359.894 213.417 360.445 213.014 360.723L196.219 372.351C195.816 372.63 195.265 372.529 194.985 372.127L190.379 365.471C190.1 365.07 190.199 364.517 190.602 364.24L207.399 352.611C207.801 352.332 208.353 352.433 208.631 352.836L213.24 359.491ZM388.782 239.045C389.184 238.765 389.284 238.214 389.005 237.811L384.398 231.156C384.12 230.753 383.567 230.653 383.166 230.93L376.509 235.538C376.106 235.817 376.007 236.37 376.285 236.773L380.892 243.428C381.171 243.831 381.724 243.931 382.125 243.652L388.782 239.045ZM398.875 230.98C399.153 231.383 399.053 231.934 398.652 232.211L391.994 236.821C391.592 237.098 391.041 236.999 390.762 236.596L386.154 229.941C385.875 229.538 385.976 228.985 386.377 228.706L393.034 224.099C393.437 223.821 393.988 223.92 394.267 224.324L398.875 230.98ZM408.52 225.379C408.923 225.099 409.023 224.548 408.744 224.147L404.137 217.49C403.858 217.087 403.306 216.988 402.904 217.266L396.248 221.875C395.845 222.152 395.746 222.705 396.022 223.106L400.631 229.763C400.909 230.165 401.462 230.265 401.865 229.986L408.52 225.379ZM182.107 336.186C182.386 336.587 182.285 337.14 181.882 337.417L175.227 342.025C174.824 342.304 174.272 342.203 173.994 341.802L169.385 335.145C169.108 334.744 169.208 334.193 169.611 333.914L176.266 329.306C176.669 329.027 177.22 329.128 177.499 329.53L182.107 336.186ZM191.594 330.692C191.996 330.416 192.097 329.863 191.818 329.46L187.21 322.805C186.932 322.402 186.38 322.301 185.978 322.581L179.323 327.188C178.919 327.467 178.819 328.018 179.097 328.421L183.706 335.077C183.984 335.478 184.536 335.579 184.938 335.301L191.594 330.692ZM201.531 322.736C201.81 323.139 201.709 323.691 201.306 323.97L194.651 328.578C194.25 328.854 193.697 328.757 193.419 328.352L188.81 321.697C188.533 321.294 188.632 320.743 189.035 320.464L195.691 315.856C196.093 315.578 196.644 315.679 196.923 316.081L201.531 322.736ZM332.669 233.032C333.073 232.753 333.171 232.201 332.893 231.797L328.287 225.142C328.008 224.74 327.455 224.64 327.052 224.917L320.397 229.525C319.994 229.804 319.895 230.357 320.173 230.76L324.78 237.413C325.059 237.818 325.61 237.917 326.013 237.639L332.669 233.032ZM342.713 225C342.99 225.404 342.891 225.954 342.488 226.233L335.831 230.84C335.43 231.118 334.879 231.019 334.6 230.617L329.992 223.962C329.713 223.558 329.814 223.007 330.215 222.727L336.872 218.12C337.273 217.841 337.826 217.941 338.104 218.344L342.713 225ZM352.308 219.433C352.712 219.154 352.812 218.603 352.534 218.199L347.925 211.544C347.647 211.142 347.095 211.04 346.693 211.319L340.036 215.927C339.635 216.206 339.534 216.758 339.812 217.161L344.419 223.817C344.699 224.22 345.25 224.32 345.653 224.041L352.308 219.433ZM211.243 316.013C211.523 316.416 211.422 316.968 211.019 317.247L204.364 321.854C203.961 322.132 203.408 322.033 203.129 321.63L198.523 314.975C198.245 314.572 198.343 314.019 198.747 313.741L205.403 309.134C205.806 308.855 206.357 308.955 206.636 309.357L211.243 316.013ZM220.732 310.523C221.134 310.244 221.234 309.693 220.955 309.29L216.348 302.635C216.068 302.232 215.517 302.131 215.116 302.41L208.459 307.018C208.056 307.297 207.957 307.848 208.235 308.251L212.842 314.908C213.121 315.309 213.674 315.41 214.075 315.131L220.732 310.523ZM230.668 302.567C230.948 302.97 230.847 303.521 230.445 303.799L223.789 308.407C223.387 308.686 222.835 308.585 222.555 308.184L217.948 301.528C217.67 301.124 217.769 300.573 218.172 300.294L224.829 295.686C225.23 295.408 225.782 295.508 226.061 295.912L230.668 302.567ZM240.157 297.076C240.56 296.797 240.66 296.246 240.381 295.843L235.774 289.187C235.495 288.785 234.943 288.685 234.54 288.962L227.885 293.571C227.481 293.848 227.383 294.401 227.659 294.804L232.267 301.459C232.546 301.862 233.099 301.961 233.502 301.684L240.157 297.076ZM250.094 289.12C250.373 289.521 250.272 290.072 249.871 290.351L243.214 294.959C242.812 295.238 242.26 295.137 241.981 294.734L237.373 288.079C237.095 287.678 237.195 287.124 237.599 286.848L244.254 282.24C244.656 281.961 245.208 282.061 245.486 282.463L250.094 289.12ZM259.583 283.627C259.984 283.348 260.085 282.797 259.806 282.395L255.198 275.739C254.919 275.337 254.368 275.236 253.967 275.515L247.31 280.123C246.907 280.401 246.808 280.953 247.085 281.355L251.693 288.012C251.972 288.413 252.525 288.514 252.926 288.235L259.583 283.627ZM269.519 275.67C269.798 276.073 269.697 276.624 269.294 276.902L262.639 281.509C262.235 281.788 261.684 281.688 261.404 281.286L256.797 274.631C256.521 274.228 256.618 273.677 257.023 273.398L263.678 268.79C264.081 268.511 264.632 268.612 264.911 269.015L269.519 275.67ZM279.007 270.18C279.409 269.903 279.509 269.35 279.23 268.947L274.623 262.292C274.345 261.889 273.792 261.788 273.391 262.068L266.736 266.675C266.331 266.954 266.232 267.505 266.51 267.908L271.117 274.564C271.396 274.966 271.948 275.066 272.351 274.788L279.007 270.18ZM288.943 262.224C289.223 262.625 289.122 263.178 288.719 263.456L282.064 268.063C281.661 268.342 281.11 268.242 280.831 267.839L276.223 261.183C275.945 260.782 276.045 260.229 276.447 259.952L283.103 255.344C283.506 255.065 284.057 255.166 284.336 255.567L288.943 262.224ZM298.433 256.731C298.834 256.453 298.937 255.901 298.657 255.499L294.05 248.843C293.771 248.441 293.219 248.341 292.817 248.62L286.161 253.227C285.757 253.506 285.659 254.058 285.935 254.459L290.543 261.116C290.822 261.519 291.373 261.618 291.778 261.34L298.433 256.731ZM317.562 242.41C317.842 242.813 317.741 243.364 317.338 243.643L301.489 254.615C301.086 254.893 300.535 254.794 300.256 254.391L295.648 247.736C295.371 247.333 295.47 246.782 295.871 246.503L311.723 235.53C312.125 235.251 312.677 235.352 312.955 235.753L317.562 242.41ZM367.787 208.719C368.19 208.44 368.291 207.889 368.012 207.487L363.404 200.832C363.125 200.427 362.574 200.328 362.171 200.606L355.514 205.213C355.113 205.493 355.012 206.044 355.291 206.447L359.897 213.103C360.176 213.505 360.728 213.606 361.132 213.326L367.787 208.719ZM161.947 322.843C161.543 323.122 161.443 323.673 161.721 324.078L166.33 330.733C166.608 331.134 167.161 331.234 167.562 330.956L183.894 319.65C184.296 319.372 184.396 318.82 184.117 318.417L179.51 311.761C179.232 311.36 178.679 311.259 178.278 311.537L161.947 322.843ZM181.073 310.679C180.795 310.277 180.894 309.726 181.297 309.447L187.954 304.84C188.355 304.56 188.906 304.661 189.186 305.063L193.793 311.719C194.072 312.121 193.972 312.673 193.57 312.951L186.913 317.559C186.512 317.838 185.959 317.737 185.68 317.336L181.073 310.679ZM190.973 302.75C190.57 303.027 190.471 303.58 190.748 303.983L195.356 310.638C195.635 311.039 196.186 311.14 196.589 310.862L203.246 306.253C203.647 305.976 203.748 305.425 203.469 305.022L198.861 298.366C198.582 297.964 198.031 297.863 197.629 298.142L190.973 302.75ZM200.424 297.284C200.146 296.881 200.246 296.329 200.647 296.049L207.305 291.442C207.707 291.165 208.258 291.265 208.537 291.668L213.145 298.324C213.424 298.726 213.323 299.277 212.922 299.556L206.265 304.164C205.862 304.443 205.311 304.342 205.032 303.939L200.424 297.284ZM210.323 289.353C209.921 289.632 209.822 290.183 210.1 290.586L214.707 297.242C214.986 297.644 215.538 297.745 215.941 297.466L222.597 292.858C222.999 292.579 223.099 292.028 222.82 291.625L218.213 284.97C217.933 284.567 217.382 284.466 216.979 284.745L210.323 289.353ZM219.774 283.886C219.495 283.483 219.596 282.932 219.997 282.653L226.654 278.046C227.057 277.766 227.608 277.867 227.887 278.27L232.495 284.925C232.774 285.328 232.673 285.881 232.272 286.157L225.615 290.766C225.212 291.044 224.661 290.945 224.382 290.542L219.774 283.886ZM229.674 275.956C229.272 276.235 229.172 276.786 229.451 277.189L234.058 283.844C234.337 284.247 234.889 284.348 235.29 284.069L241.948 279.461C242.35 279.183 242.449 278.631 242.171 278.229L237.564 271.573C237.284 271.171 236.733 271.07 236.33 271.348L229.674 275.956ZM239.125 270.491C238.846 270.09 238.947 269.537 239.348 269.259L246.005 264.652C246.408 264.372 246.959 264.473 247.238 264.875L251.846 271.531C252.124 271.933 252.024 272.484 251.621 272.763L244.965 277.371C244.563 277.65 244.012 277.549 243.733 277.148L239.125 270.491ZM249.025 262.559C248.624 262.838 248.523 263.391 248.802 263.794L253.41 270.449C253.689 270.852 254.24 270.951 254.641 270.673L261.298 266.066C261.701 265.787 261.8 265.235 261.523 264.833L256.915 258.177C256.636 257.773 256.083 257.674 255.682 257.951L249.025 262.559ZM258.477 257.096C258.198 256.691 258.298 256.14 258.7 255.861L265.357 251.254C265.758 250.976 266.311 251.077 266.59 251.478L271.197 258.135C271.475 258.538 271.376 259.089 270.973 259.368L264.316 263.976C263.915 264.255 263.364 264.154 263.084 263.751L258.477 257.096ZM268.376 249.164C267.975 249.443 267.874 249.994 268.153 250.395L272.761 257.052C273.04 257.455 273.591 257.554 273.993 257.277L280.649 252.669C281.052 252.39 281.152 251.837 280.874 251.436L276.265 244.781C275.987 244.378 275.435 244.277 275.033 244.556L268.376 249.164ZM277.829 243.698C277.55 243.296 277.651 242.744 278.052 242.465L284.709 237.858C285.11 237.579 285.663 237.679 285.941 238.082L290.55 244.737C290.827 245.14 290.727 245.693 290.325 245.969L283.668 250.578C283.267 250.856 282.716 250.757 282.437 250.354L277.829 243.698ZM287.727 235.768C287.325 236.045 287.225 236.598 287.504 237.001L292.111 243.656C292.391 244.059 292.942 244.16 293.343 243.881L300 239.273C300.401 238.994 300.502 238.443 300.223 238.041L295.615 231.385C295.338 230.983 294.785 230.882 294.384 231.16L287.727 235.768ZM297.18 230.302C296.901 229.9 297.002 229.348 297.403 229.07L304.06 224.461C304.462 224.183 305.014 224.283 305.292 224.687L309.9 231.342C310.179 231.744 310.078 232.295 309.676 232.574L303.02 237.181C302.618 237.461 302.067 237.36 301.788 236.958L297.18 230.302ZM312.732 218.457C312.33 218.733 312.229 219.287 312.509 219.688L317.116 226.345C317.395 226.747 317.947 226.847 318.348 226.568L325.005 221.961C325.408 221.681 325.507 221.13 325.229 220.729L320.62 214.074C320.342 213.671 319.79 213.57 319.388 213.848L312.732 218.457ZM322.33 212.892C322.051 212.489 322.152 211.936 322.553 211.659L329.21 207.05C329.612 206.772 330.164 206.871 330.442 207.276L335.051 213.931C335.329 214.334 335.229 214.885 334.825 215.163L328.17 219.772C327.768 220.049 327.216 219.949 326.938 219.547L322.33 212.892ZM332.375 204.86C331.972 205.136 331.871 205.69 332.15 206.092L336.758 212.747C337.037 213.15 337.588 213.251 337.991 212.972L344.646 208.364C345.048 208.085 345.148 207.534 344.871 207.132L340.262 200.476C339.985 200.074 339.433 199.973 339.03 200.25L332.375 204.86ZM347.627 195.378C347.348 194.975 347.449 194.422 347.852 194.145L354.507 189.537C354.91 189.258 355.461 189.359 355.74 189.761L360.348 196.417C360.627 196.82 360.526 197.371 360.125 197.648L353.468 202.256C353.065 202.535 352.514 202.434 352.235 202.033L347.627 195.378ZM357.722 187.312C357.321 187.592 357.22 188.143 357.499 188.544L362.107 195.201C362.383 195.602 362.937 195.703 363.339 195.424L369.994 190.816C370.397 190.537 370.498 189.986 370.218 189.585L365.611 182.929C365.332 182.526 364.781 182.426 364.379 182.705L357.722 187.312ZM360.885 272.231C361.163 272.635 361.064 273.185 360.661 273.464L354.004 278.072C353.603 278.35 353.052 278.25 352.772 277.847L348.165 271.192C347.886 270.789 347.986 270.238 348.389 269.959L355.045 265.351C355.447 265.072 355.999 265.173 356.278 265.576L360.885 272.231ZM370.48 266.668C370.884 266.389 370.983 265.838 370.706 265.434L366.098 258.778C365.819 258.377 365.268 258.276 364.865 258.554L358.208 263.161C357.807 263.441 357.706 263.993 357.984 264.395L362.591 271.051C362.87 271.454 363.423 271.554 363.824 271.276L370.48 266.668ZM380.525 258.635C380.803 259.038 380.704 259.589 380.301 259.868L373.645 264.476C373.242 264.754 372.691 264.654 372.412 264.253L367.805 257.598C367.525 257.193 367.626 256.642 368.029 256.363L374.684 251.755C375.089 251.476 375.64 251.577 375.919 251.98L380.525 258.635ZM213.022 375.673C213.425 375.395 213.524 374.844 213.246 374.439L208.639 367.784C208.359 367.381 207.808 367.281 207.405 367.56L197.602 374.347C197.199 374.627 197.098 375.178 197.377 375.581L201.985 382.236C202.263 382.639 202.815 382.739 203.217 382.46L213.022 375.673ZM226.137 365.517C226.416 365.919 226.315 366.471 225.912 366.75L216.107 373.536C215.705 373.815 215.154 373.714 214.875 373.313L210.268 366.658C209.988 366.255 210.089 365.704 210.491 365.424L220.296 358.637C220.699 358.358 221.25 358.458 221.529 358.86L226.137 365.517ZM238.803 357.826C239.205 357.547 239.305 356.996 239.026 356.592L234.419 349.936C234.142 349.535 233.588 349.434 233.187 349.712L223.382 356.501C222.979 356.78 222.88 357.331 223.157 357.733L227.765 364.388C228.044 364.791 228.595 364.892 228.999 364.612L238.803 357.826ZM319.638 300.786C319.917 301.188 319.817 301.74 319.414 302.018L309.609 308.805C309.207 309.085 308.656 308.984 308.377 308.582L303.769 301.927C303.49 301.524 303.591 300.972 303.992 300.694L313.798 293.906C314.2 293.627 314.752 293.728 315.031 294.131L319.638 300.786ZM332.371 293.048C332.774 292.769 332.875 292.218 332.596 291.816L327.988 285.161C327.71 284.758 327.158 284.658 326.756 284.935L316.953 291.723C316.548 292.002 316.448 292.553 316.727 292.956L321.334 299.611C321.614 300.016 322.165 300.113 322.568 299.837L332.371 293.048ZM345.555 282.844C345.833 283.248 345.733 283.8 345.329 284.079L335.525 290.865C335.124 291.144 334.571 291.043 334.293 290.64L329.684 283.985C329.407 283.584 329.507 283.031 329.909 282.752L339.713 275.964C340.116 275.685 340.668 275.786 340.946 276.189L345.555 282.844ZM405.649 242.32C406.051 242.042 406.152 241.491 405.872 241.088L401.265 234.433C400.986 234.028 400.435 233.929 400.033 234.207L383.508 245.647C383.104 245.926 383.004 246.477 383.282 246.881L387.89 253.537C388.169 253.939 388.72 254.04 389.124 253.761L405.649 242.32ZM306.68 309.756C306.959 310.16 306.859 310.711 306.456 310.99L241.888 355.689C241.486 355.967 240.934 355.868 240.656 355.465L236.048 348.809C235.769 348.407 235.87 347.854 236.271 347.576L300.839 302.878C301.242 302.598 301.793 302.699 302.073 303.101L306.68 309.756ZM415.519 235.488C415.921 235.209 416.021 234.658 415.743 234.256L411.135 227.6C410.858 227.197 410.304 227.097 409.902 227.374L403.247 231.984C402.844 232.26 402.743 232.814 403.022 233.216L407.63 239.873C407.909 240.274 408.46 240.375 408.863 240.096L415.519 235.488ZM404.618 197.098C404.897 197.501 404.797 198.051 404.395 198.33L397.739 202.938C397.337 203.217 396.784 203.116 396.505 202.715L391.898 196.058C391.619 195.657 391.721 195.104 392.122 194.826L398.779 190.219C399.18 189.939 399.733 190.04 400.011 190.442L404.618 197.098ZM411.392 208.438C411.795 208.159 411.895 207.608 411.615 207.206L407.008 200.55C406.73 200.148 406.179 200.047 405.776 200.324L399.121 204.934C398.716 205.211 398.617 205.765 398.895 206.166L403.502 212.823C403.782 213.224 404.333 213.325 404.737 213.046L411.392 208.438Z" fill="white"/>
<defs>
<radialGradient id="paint0_radial" cx="0" cy="0" r="1" gradientUnits="userSpaceOnUse" gradientTransform="translate(309.912 220.274) scale(512.153 807.354)">
<stop stop-color="#837469"/>
<stop offset="0.059" stop-color="#837469"/>
<stop offset="0.194" stop-color="#837469"/>
<stop offset="0.317" stop-color="#6F645A"/>
<stop offset="0.436" stop-color="#6F645A"/>
<stop offset="0.586" stop-color="#594E47"/>
<stop offset="0.812" stop-color="#433830"/>
<stop offset="1" stop-color="#423730"/>
</radialGradient>
<radialGradient id="paint1_radial" cx="0" cy="0" r="1" gradientUnits="userSpaceOnUse" gradientTransform="translate(76.4562 320.731) scale(60.3976 61.497)">
<stop stop-color="#7E7065"/>
<stop offset="0.215" stop-color="#7E7065"/>
<stop offset="0.306" stop-color="#7E7065"/>
<stop offset="0.521" stop-color="#7E7065"/>
<stop offset="0.812" stop-color="#645750"/>
<stop offset="1" stop-color="#4C3F36"/>
</radialGradient>
<radialGradient id="paint2_radial" cx="0" cy="0" r="1" gradientUnits="userSpaceOnUse" gradientTransform="translate(292.32 286.479) scale(588.734 146.382)">
<stop stop-color="#534A43"/>
<stop offset="0.059" stop-color="#534A43"/>
<stop offset="0.194" stop-color="#534A43"/>
<stop offset="0.317" stop-color="#473F3A"/>
<stop offset="0.436" stop-color="#473F3A"/>
<stop offset="0.586" stop-color="#37312D"/>
<stop offset="0.812" stop-color="#2A2420"/>
<stop offset="1" stop-color="#2A2420"/>
</radialGradient>
<radialGradient id="paint3_radial" cx="0" cy="0" r="1" gradientUnits="userSpaceOnUse" gradientTransform="translate(292.316 286.477) scale(588.765 163.058)">
<stop stop-color="#534A43"/>
<stop offset="0.059" stop-color="#534A43"/>
<stop offset="0.194" stop-color="#534A43"/>
<stop offset="0.317" stop-color="#473F3A"/>
<stop offset="0.436" stop-color="#473F3A"/>
<stop offset="0.586" stop-color="#37312D"/>
<stop offset="0.812" stop-color="#2A2420"/>
<stop offset="1" stop-color="#2A2420"/>
</radialGradient>
<radialGradient id="paint4_radial" cx="0" cy="0" r="1" gradientUnits="userSpaceOnUse" gradientTransform="translate(292.317 286.476) scale(588.754 149.214)">
<stop stop-color="#534A43"/>
<stop offset="0.059" stop-color="#534A43"/>
<stop offset="0.194" stop-color="#534A43"/>
<stop offset="0.317" stop-color="#473F3A"/>
<stop offset="0.436" stop-color="#473F3A"/>
<stop offset="0.586" stop-color="#37312D"/>
<stop offset="0.812" stop-color="#2A2420"/>
<stop offset="1" stop-color="#2A2420"/>
</radialGradient>
</defs>
</svg>
