<svg width="137" height="36" viewBox="0 0 137 36" fill="none" xmlns="http://www.w3.org/2000/svg">
<path fill-rule="evenodd" clip-rule="evenodd" d="M13.5279 0.676509C12.8046 0.676509 12.1159 0.969397 11.5993 1.51856L8.27599 5.05153L4.95268 1.51856C4.4361 0.969397 3.74733 0.658203 3.0069 0.658203C1.50883 0.658203 0.269043 1.9579 0.269043 3.56878C0.269043 5.17967 1.49161 6.47936 3.0069 6.47936H6.93289L5.02155 8.51128L5.95139 9.49978L8.29321 7.01023L10.6522 9.51808L11.5821 8.52958L9.63631 6.47936H13.5279C15.0259 6.47936 16.2657 5.17967 16.2657 3.56878C16.2657 1.9762 15.0259 0.676509 13.5279 0.676509ZM3.02323 5.08837C2.24836 5.08837 1.61125 4.41107 1.61125 3.56902C1.61125 2.74527 2.24836 2.06796 3.02323 2.06796C3.40205 2.06796 3.76366 2.23271 4.03916 2.50729L6.46708 5.08837H3.02323ZM10.1007 5.08837H13.5274C14.3022 5.08837 14.9393 4.41107 14.9565 3.56902C14.9565 2.74527 14.3022 2.06796 13.5274 2.06796C13.1485 2.06796 12.8041 2.2144 12.5286 2.50729L10.1007 5.08837Z" fill="#8CC63F"/>
<path d="M8.22433 3.45975L9.60187 1.9953V0H6.86401V1.9953L8.22433 3.45975Z" fill="#29ABE2"/>
<path d="M21.001 7.72559V20.3747C21.001 22.0954 20.4672 23.4317 19.4168 24.4019C18.5042 25.2257 17.1267 25.6467 15.267 25.6467C13.4418 25.6467 12.0642 25.2257 11.1688 24.4019C10.1184 23.4317 9.58465 22.0771 9.58465 20.3747V10.0504L8.22433 8.58595L6.86401 10.0321V20.3564C6.86401 22.8277 7.67332 24.823 9.27471 26.3057C10.3079 27.2759 11.5649 27.9166 13.0285 28.2095C13.5279 28.2827 14.2855 28.3193 15.2842 28.3193C16.2829 28.3193 17.0234 28.2827 17.5055 28.2095C19.2791 27.8617 20.7255 27.0379 21.8792 25.7382C23.119 24.3104 23.7389 22.5165 23.7389 20.3564V7.72559H21.001Z" fill="#29ABE2"/>
<path d="M42.7394 10.534C44.7284 12.518 45.723 14.9167 45.723 17.7123C45.723 20.5078 44.7284 22.9066 42.7394 24.8905C40.7503 26.8745 38.3635 27.8664 35.5607 27.8664C33.7886 27.8664 31.89 27.3434 29.8286 26.2793V23.3755C32.2516 24.6019 34.1322 25.1971 35.4522 25.1971H35.5607C37.6221 25.1971 39.3942 24.4577 40.8588 22.9968C42.3235 21.5359 43.0468 19.7684 43.0468 17.7123C43.0468 15.6562 42.3235 13.9067 40.8588 12.4278C39.3942 10.9669 37.6221 10.2455 35.5607 10.2455C33.4993 10.2455 31.7273 10.9669 30.2626 12.4278C28.7979 13.8887 28.0566 15.6562 28.0566 17.7123V36.0006H25.3804V17.7123C25.3804 14.9167 26.3749 12.518 28.364 10.534C30.353 8.56814 32.7579 7.57617 35.5607 7.57617C38.3454 7.57617 40.7503 8.56814 42.7394 10.534Z" fill="#29ABE2"/>
<path d="M59.5018 15.4026C62.2684 17.1701 63.6608 19.659 63.6608 22.8694V27.8653H60.7857V22.8694C60.7857 21.1379 60.189 19.677 58.9775 18.4686C57.7479 17.2422 56.3194 16.647 54.6558 16.647H49.7193V27.8653H46.8442V0H49.7193V13.9777H55.6503C56.6268 13.9777 57.4766 13.617 58.1999 12.8956C58.9232 12.1741 59.2668 11.3084 59.2668 10.2804V7.57503H62.1419V10.2804C62.1419 12.3906 61.2739 14.104 59.5018 15.4026Z" fill="#29ABE2"/>
<path d="M83.1537 25.3931C82.0687 26.2047 80.8572 26.836 79.5011 27.2688C78.2534 27.6656 76.7706 27.864 75.0709 27.864H74.6008C74.4199 27.864 74.2391 27.864 74.0583 27.846C72.232 27.7738 70.5503 27.2508 69.0495 26.2769C67.4402 25.2488 66.1925 23.842 65.3065 22.0565C64.7097 20.6497 64.4023 19.2429 64.4023 17.8C64.4023 17.3672 64.4204 16.9524 64.4747 16.5375C64.7097 14.6979 65.3969 12.9665 66.5361 11.3432C67.8018 9.93645 68.9048 9.03466 69.8451 8.63787C71.3098 7.93448 72.8468 7.5918 74.5103 7.5918C74.7273 7.5918 74.9262 7.5918 75.1613 7.60983C77.0238 7.71805 78.7416 8.24108 80.3328 9.17894C81.8156 10.1168 82.8463 11.2891 83.4068 12.714C83.5877 13.255 83.6781 13.7961 83.6962 14.3372V14.4093C83.6962 15.1849 83.4972 15.9424 83.0994 16.6638C82.4304 17.9804 81.0923 19.0445 79.0852 19.8201C77.4578 20.4513 75.523 20.794 73.2988 20.8481H72.8829C71.8161 20.8481 70.7311 20.7218 69.6281 20.4513C69.1942 19.8922 68.9772 19.1888 68.9772 18.305C68.9772 18.1247 68.9772 17.9443 68.9952 17.764C70.478 18.1247 71.8884 18.305 73.2084 18.305C75.8304 18.305 78.163 17.5836 80.1701 16.1588C80.6945 15.6899 80.9838 15.0947 80.9838 14.3913C80.9838 13.6338 80.6402 12.9123 79.9712 12.245C78.8863 11.199 77.5301 10.5316 75.9027 10.2791C75.4145 10.207 74.9624 10.1709 74.5103 10.1709C73.4073 10.1709 72.3766 10.4054 71.4183 10.8563C69.9898 11.5236 68.8868 12.4975 68.1273 13.7781C67.404 15.0045 67.0424 16.267 67.0424 17.5656C67.0424 20.0906 68.1092 22.1647 70.2248 23.806C71.6353 24.7799 73.0999 25.2669 74.655 25.2669C74.872 25.2849 75.0709 25.2849 75.2879 25.2849C78.3076 25.2849 80.9296 24.311 83.1718 22.3631V25.3931H83.1537Z" fill="#29ABE2"/>
<path d="M103.207 25.3931C102.122 26.2047 100.911 26.836 99.5545 27.2688C98.3069 27.6656 96.8241 27.864 95.1244 27.864H94.6542C94.4734 27.864 94.2926 27.864 94.1118 27.846C92.2854 27.7738 90.6038 27.2508 89.103 26.2769C87.4936 25.2488 86.246 23.842 85.3599 22.0565C84.7632 20.6497 84.4558 19.2429 84.4558 17.8C84.4558 17.3672 84.4739 16.9524 84.5281 16.5375C84.7632 14.6979 85.4503 12.9665 86.5895 11.3432C87.8553 9.93645 88.9583 9.03466 89.8986 8.63787C91.3632 7.93448 92.9002 7.5918 94.5638 7.5918C94.7808 7.5918 94.9797 7.5918 95.2148 7.60983C97.0773 7.71805 98.7951 8.24108 100.386 9.17894C101.869 10.1168 102.9 11.2891 103.46 12.714C103.641 13.255 103.732 13.7961 103.75 14.3372V14.4093C103.75 15.1849 103.551 15.9424 103.153 16.6638C102.484 17.9804 101.146 19.0445 99.1386 19.8201C97.5112 20.4513 95.5764 20.794 93.3523 20.8481H92.9364C91.8696 20.8481 90.7846 20.7218 89.6816 20.4513C89.2476 19.8922 89.0306 19.1888 89.0306 18.305C89.0306 18.1247 89.0306 17.9443 89.0487 17.764C90.5315 18.1247 91.9419 18.305 93.2619 18.305C95.8838 18.305 98.2164 17.5836 100.224 16.1588C100.748 15.6899 101.037 15.0947 101.037 14.3913C101.037 13.6338 100.694 12.9123 100.025 12.245C98.9397 11.199 97.5836 10.5316 95.9562 10.2791C95.4679 10.207 95.0159 10.1709 94.5638 10.1709C93.4608 10.1709 92.4301 10.4054 91.4717 10.8563C90.0432 11.5236 88.9402 12.4975 88.1808 13.7781C87.4575 15.0045 87.0958 16.267 87.0958 17.5656C87.0958 20.0906 88.1627 22.1647 90.2783 23.806C91.6887 24.7799 93.1534 25.2669 94.7085 25.2669C94.9255 25.2849 95.1244 25.2849 95.3414 25.2849C98.3611 25.2849 100.983 24.311 103.225 22.3631V25.3931H103.207Z" fill="#29ABE2"/>
<path d="M122.265 10.534C124.254 12.518 125.249 14.9167 125.249 17.7123C125.249 20.5078 124.254 22.9066 122.265 24.8905C120.276 26.8745 117.889 27.8664 115.087 27.8664C113.315 27.8664 111.416 27.3434 109.354 26.2793V23.3755C111.778 24.6019 113.658 25.1971 114.978 25.1971H115.087C117.148 25.1971 118.92 24.4577 120.385 22.9968C121.849 21.5359 122.573 19.7684 122.573 17.7123C122.573 15.6562 121.849 13.9067 120.385 12.4278C118.92 10.9669 117.148 10.2455 115.087 10.2455C113.025 10.2455 111.253 10.9669 109.788 12.4278C108.324 13.8887 107.582 15.6562 107.582 17.7123V36.0006H104.906V17.7123C104.906 14.9167 105.901 12.518 107.89 10.534C109.879 8.56814 112.284 7.57617 115.087 7.57617C117.871 7.57617 120.276 8.56814 122.265 10.534Z" fill="#29ABE2"/>
<path d="M136.731 10.2431C134.67 10.2431 132.898 10.9645 131.451 12.3893C129.987 13.8682 129.245 15.6538 129.245 17.7279V27.882H126.37V17.7279C126.37 14.9324 127.365 12.5516 129.354 10.5857C131.361 8.58376 133.82 7.5918 136.731 7.5918V10.2431Z" fill="#8CC63F"/>
</svg>
